%
M48
M72
T01C0.0236
T02C0.0320
T03C0.0354
T04C0.0400
T05C0.0787
T06C0.1300
%
T01
X3501Y1621
X4281Y1641
X5081Y1621
X5861Y1641
X10181Y2181
X17181Y2681
X20681Y4681
X27181Y4181
X27681Y2681
X30721Y1321
X31181Y7181
X32681Y8681
X29681Y12181
X27181Y14681
X24681Y14681
X25681Y11181
X20681Y9181
X19681Y9181
X19681Y12181
X14681Y11181
X2181Y12181
X1181Y8181
X25681Y21681
X28181Y21681
T02
X36181Y15681
X37181Y15681
X29681Y14681
X28681Y14681
X28681Y10181
X29681Y10181
T03
X31181Y8681
X32681Y7181
X33681Y6181
X35681Y7181
X30681Y6181
X25181Y10181
X22181Y10181
X31181Y11681
X32902Y12181
X31181Y13181
X35461Y12181
X31181Y16181
X20181Y21281
X20181Y24081
X15681Y23666
X14681Y25181
X11681Y25181
X10681Y23666
X10681Y21697
X15681Y21697
X34181Y1681
X37181Y1681
T04
X36571Y2901
X34791Y2901
X33071Y2401
X31291Y2401
X29681Y2181
X29681Y3181
X29681Y4181
X29681Y5181
X29681Y6181
X29681Y7181
X31291Y4961
X33071Y4961
X34791Y5461
X36571Y5461
X25681Y5181
X25681Y6181
X25681Y7181
X24181Y7681
X23181Y7681
X22181Y7681
X21181Y7681
X20181Y7681
X19181Y7681
X18181Y7681
X17181Y7681
X16181Y7681
X15181Y7681
X14181Y7681
X13181Y7681
X12681Y10181
X11681Y10181
X10681Y10181
X9681Y10181
X8681Y10181
X7681Y10181
X6681Y10181
X5681Y10181
X4681Y10181
X3681Y10181
X2681Y10181
X1681Y10181
X10181Y5181
X10181Y4181
X10181Y3181
X13181Y1681
X14181Y1681
X15181Y1681
X16181Y1681
X17181Y1681
X18181Y1681
X19181Y1681
X20181Y1681
X21181Y1681
X22181Y1681
X23181Y1681
X24181Y1681
X25681Y2181
X25681Y3181
X25681Y4181
X20681Y2681
X19681Y2681
X19681Y10181
X20681Y10181
X18681Y10181
X17681Y10181
X16681Y10181
X15681Y10181
X14681Y10181
X13681Y10181
X13181Y19681
X14181Y19681
X12181Y19681
X12631Y22681
X13731Y22681
X31681Y22181
X31681Y23181
X31681Y24181
X31681Y25181
X31681Y26181
X31681Y27181
X36681Y27181
X36681Y26181
X36681Y25181
X36681Y24181
X36681Y23181
X36681Y22181
X36681Y21181
X36681Y20181
X36681Y19181
X36681Y18181
X31681Y18181
X31681Y19181
X31681Y20181
X31681Y21181
T05
X7585Y8642
X8181Y1144
T06
X13181Y13781
M30
