G75*
G70*
%OFA0B0*%
%FSLAX24Y24*%
%IPPOS*%
%LPD*%
%AMOC8*
5,1,8,0,0,1.08239X$1,22.5*
%
%ADD10C,0.0080*%
%ADD11C,0.0050*%
%ADD12C,0.0060*%
%ADD13C,0.0020*%
%ADD14C,0.0040*%
%ADD15R,0.0500X0.0350*%
%ADD16C,0.0010*%
D10*
X012681Y001431D02*
X012681Y001931D01*
X012931Y002181D01*
X013431Y002181D01*
X013681Y001931D01*
X013931Y002181D01*
X014431Y002181D01*
X014681Y001931D01*
X014931Y002181D01*
X015431Y002181D01*
X015681Y001931D01*
X015931Y002181D01*
X016431Y002181D01*
X016681Y001931D01*
X016931Y002181D01*
X017431Y002181D01*
X017681Y001931D01*
X017931Y002181D01*
X018431Y002181D01*
X018681Y001931D01*
X018931Y002181D01*
X019431Y002181D01*
X019931Y002181D01*
X020181Y002431D01*
X020431Y002181D01*
X020931Y002181D01*
X021181Y002431D01*
X021181Y002931D01*
X020931Y003181D01*
X020431Y003181D01*
X020181Y002931D01*
X019931Y003181D01*
X019431Y003181D01*
X019181Y002931D01*
X019181Y002431D01*
X019431Y002181D01*
X019681Y001931D01*
X019931Y002181D01*
X020431Y002181D01*
X020681Y001931D01*
X020931Y002181D01*
X021431Y002181D01*
X021681Y001931D01*
X021931Y002181D01*
X022431Y002181D01*
X022681Y001931D01*
X022931Y002181D01*
X023431Y002181D01*
X023681Y001931D01*
X023931Y002181D01*
X024431Y002181D01*
X024681Y001931D01*
X024681Y001431D01*
X024431Y001181D01*
X023931Y001181D01*
X023681Y001431D01*
X023431Y001181D01*
X022931Y001181D01*
X022681Y001431D01*
X022431Y001181D01*
X021931Y001181D01*
X021681Y001431D01*
X021431Y001181D01*
X020931Y001181D01*
X020681Y001431D01*
X020431Y001181D01*
X019931Y001181D01*
X019681Y001431D01*
X019431Y001181D01*
X018931Y001181D01*
X018681Y001431D01*
X018431Y001181D01*
X017931Y001181D01*
X017681Y001431D01*
X017431Y001181D01*
X016931Y001181D01*
X016681Y001431D01*
X016431Y001181D01*
X015931Y001181D01*
X015681Y001431D01*
X015431Y001181D01*
X014931Y001181D01*
X014681Y001431D01*
X014431Y001181D01*
X013931Y001181D01*
X013681Y001431D01*
X013431Y001181D01*
X012931Y001181D01*
X012681Y001431D01*
X012931Y007181D02*
X013431Y007181D01*
X013681Y007431D01*
X013931Y007181D01*
X014431Y007181D01*
X014681Y007431D01*
X014931Y007181D01*
X015431Y007181D01*
X015681Y007431D01*
X015931Y007181D01*
X016431Y007181D01*
X016681Y007431D01*
X016931Y007181D01*
X017431Y007181D01*
X017681Y007431D01*
X017931Y007181D01*
X018431Y007181D01*
X018681Y007431D01*
X018931Y007181D01*
X019431Y007181D01*
X019681Y007431D01*
X019931Y007181D01*
X020431Y007181D01*
X020681Y007431D01*
X020931Y007181D01*
X021431Y007181D01*
X021681Y007431D01*
X021931Y007181D01*
X022431Y007181D01*
X022681Y007431D01*
X022931Y007181D01*
X023431Y007181D01*
X023681Y007431D01*
X023931Y007181D01*
X024431Y007181D01*
X024681Y007431D01*
X024681Y007931D01*
X024431Y008181D01*
X023931Y008181D01*
X023681Y007931D01*
X023431Y008181D01*
X022931Y008181D01*
X022681Y007931D01*
X022431Y008181D01*
X021931Y008181D01*
X021681Y007931D01*
X021431Y008181D01*
X020931Y008181D01*
X020681Y007931D01*
X020431Y008181D01*
X019931Y008181D01*
X019681Y007931D01*
X019431Y008181D01*
X018931Y008181D01*
X018681Y007931D01*
X018431Y008181D01*
X017931Y008181D01*
X017681Y007931D01*
X017431Y008181D01*
X016931Y008181D01*
X016681Y007931D01*
X016431Y008181D01*
X015931Y008181D01*
X015681Y007931D01*
X015431Y008181D01*
X014931Y008181D01*
X014681Y007931D01*
X014431Y008181D01*
X013931Y008181D01*
X013681Y007931D01*
X013431Y008181D01*
X012931Y008181D01*
X012681Y007931D01*
X012681Y007431D01*
X012931Y007181D01*
X012931Y009681D02*
X012431Y009681D01*
X012181Y009931D01*
X011931Y009681D01*
X011431Y009681D01*
X011181Y009931D01*
X010931Y009681D01*
X010431Y009681D01*
X010181Y009931D01*
X009931Y009681D01*
X009431Y009681D01*
X009181Y009931D01*
X008931Y009681D01*
X008431Y009681D01*
X008181Y009931D01*
X007931Y009681D01*
X007431Y009681D01*
X007181Y009931D01*
X006931Y009681D01*
X006431Y009681D01*
X006181Y009931D01*
X005931Y009681D01*
X005431Y009681D01*
X005181Y009931D01*
X004931Y009681D01*
X004431Y009681D01*
X004181Y009931D01*
X003931Y009681D01*
X003431Y009681D01*
X003181Y009931D01*
X002931Y009681D01*
X002431Y009681D01*
X002181Y009931D01*
X001931Y009681D01*
X001431Y009681D01*
X001181Y009931D01*
X001181Y010431D01*
X001431Y010681D01*
X001931Y010681D01*
X002181Y010431D01*
X002431Y010681D01*
X002931Y010681D01*
X003181Y010431D01*
X003431Y010681D01*
X003931Y010681D01*
X004181Y010431D01*
X004431Y010681D01*
X004931Y010681D01*
X005181Y010431D01*
X005431Y010681D01*
X005931Y010681D01*
X006181Y010431D01*
X006431Y010681D01*
X006931Y010681D01*
X007181Y010431D01*
X007431Y010681D01*
X007931Y010681D01*
X008181Y010431D01*
X008431Y010681D01*
X008931Y010681D01*
X009181Y010431D01*
X009431Y010681D01*
X009931Y010681D01*
X010181Y010431D01*
X010431Y010681D01*
X010931Y010681D01*
X011181Y010431D01*
X011431Y010681D01*
X011931Y010681D01*
X012181Y010431D01*
X012431Y010681D01*
X012931Y010681D01*
X013181Y010431D01*
X013431Y010681D01*
X013931Y010681D01*
X014181Y010431D01*
X014431Y010681D01*
X014931Y010681D01*
X015181Y010431D01*
X015431Y010681D01*
X015931Y010681D01*
X016181Y010431D01*
X016431Y010681D01*
X016931Y010681D01*
X017181Y010431D01*
X017431Y010681D01*
X017931Y010681D01*
X018181Y010431D01*
X018431Y010681D01*
X018931Y010681D01*
X019181Y010431D01*
X019431Y010681D01*
X019931Y010681D01*
X020181Y010431D01*
X020431Y010681D01*
X020931Y010681D01*
X021181Y010431D01*
X021181Y009931D01*
X020931Y009681D01*
X020431Y009681D01*
X020181Y009931D01*
X019931Y009681D01*
X019431Y009681D01*
X019181Y009931D01*
X018931Y009681D01*
X018431Y009681D01*
X018181Y009931D01*
X017931Y009681D01*
X017431Y009681D01*
X017181Y009931D01*
X016931Y009681D01*
X016431Y009681D01*
X016181Y009931D01*
X015931Y009681D01*
X015431Y009681D01*
X015181Y009931D01*
X014931Y009681D01*
X014431Y009681D01*
X014181Y009931D01*
X013931Y009681D01*
X013431Y009681D01*
X013181Y009931D01*
X012931Y009681D01*
X022581Y010181D02*
X022681Y010181D01*
X022681Y010481D01*
X024681Y010481D01*
X024681Y010181D01*
X024781Y010181D01*
X024681Y010181D02*
X024681Y009881D01*
X022681Y009881D01*
X022681Y010181D01*
X025181Y007431D02*
X025431Y007681D01*
X025931Y007681D01*
X026181Y007431D01*
X026181Y006931D01*
X025931Y006681D01*
X026181Y006431D01*
X026181Y005931D01*
X025931Y005681D01*
X026181Y005431D01*
X026181Y004931D01*
X025931Y004681D01*
X026181Y004431D01*
X026181Y003931D01*
X025931Y003681D01*
X026181Y003431D01*
X026181Y002931D01*
X025931Y002681D01*
X026181Y002431D01*
X026181Y001931D01*
X025931Y001681D01*
X025431Y001681D01*
X025181Y001931D01*
X025181Y002431D01*
X025431Y002681D01*
X025181Y002931D01*
X025181Y003431D01*
X025431Y003681D01*
X025181Y003931D01*
X025181Y004431D01*
X025431Y004681D01*
X025181Y004931D01*
X025181Y005431D01*
X025431Y005681D01*
X025181Y005931D01*
X025181Y006431D01*
X025431Y006681D01*
X025181Y006931D01*
X025181Y007431D01*
X029181Y007431D02*
X029181Y006931D01*
X029431Y006681D01*
X029181Y006431D01*
X029181Y005931D01*
X029431Y005681D01*
X029181Y005431D01*
X029181Y004931D01*
X029431Y004681D01*
X029181Y004431D01*
X029181Y003931D01*
X029431Y003681D01*
X029181Y003431D01*
X029181Y002931D01*
X029431Y002681D01*
X029181Y002431D01*
X029181Y001931D01*
X029431Y001681D01*
X029931Y001681D01*
X030181Y001931D01*
X030181Y002431D01*
X029931Y002681D01*
X030181Y002931D01*
X030181Y003431D01*
X029931Y003681D01*
X030181Y003931D01*
X030181Y004431D01*
X029931Y004681D01*
X030181Y004931D01*
X030181Y005431D01*
X029931Y005681D01*
X030181Y005931D01*
X030181Y006431D01*
X029931Y006681D01*
X030181Y006931D01*
X030181Y007431D01*
X029931Y007681D01*
X029431Y007681D01*
X029181Y007431D01*
X031181Y006481D02*
X031181Y006181D01*
X031081Y006181D01*
X031181Y006181D02*
X031181Y005881D01*
X033181Y005881D01*
X033181Y006181D01*
X033281Y006181D01*
X033181Y006181D02*
X033181Y006481D01*
X031181Y006481D01*
X033081Y007181D02*
X033181Y007181D01*
X033181Y007481D01*
X035181Y007481D01*
X035181Y007181D01*
X035281Y007181D01*
X035181Y007181D02*
X035181Y006881D01*
X033181Y006881D01*
X033181Y007181D01*
X031481Y009181D02*
X031181Y009181D01*
X031181Y009081D01*
X031181Y009181D02*
X030881Y009181D01*
X030881Y011181D01*
X031181Y011181D01*
X031181Y011281D01*
X031181Y011181D02*
X031481Y011181D01*
X031481Y009181D01*
X030181Y009431D02*
X030181Y010931D01*
X031181Y013581D02*
X031181Y013681D01*
X030881Y013681D01*
X030881Y015681D01*
X031181Y015681D01*
X031181Y015781D01*
X031181Y015681D02*
X031481Y015681D01*
X031481Y013681D01*
X031181Y013681D01*
X030181Y013931D02*
X030181Y015431D01*
X031431Y017681D02*
X031181Y017931D01*
X031181Y018431D01*
X031431Y018681D01*
X031181Y018931D01*
X031181Y019431D01*
X031431Y019681D01*
X031181Y019931D01*
X031181Y020431D01*
X031431Y020681D01*
X031181Y020931D01*
X031181Y021431D01*
X031431Y021681D01*
X031181Y021931D01*
X031181Y022431D01*
X031431Y022681D01*
X031181Y022931D01*
X031181Y023431D01*
X031431Y023681D01*
X031181Y023931D01*
X031181Y024431D01*
X031431Y024681D01*
X031181Y024931D01*
X031181Y025431D01*
X031431Y025681D01*
X031181Y025931D01*
X031181Y026431D01*
X031431Y026681D01*
X031181Y026931D01*
X031181Y027431D01*
X031431Y027681D01*
X031931Y027681D01*
X032181Y027431D01*
X032181Y026931D01*
X031931Y026681D01*
X032181Y026431D01*
X032181Y025931D01*
X031931Y025681D01*
X032181Y025431D01*
X032181Y024931D01*
X031931Y024681D01*
X032181Y024431D01*
X032181Y023931D01*
X031931Y023681D01*
X032181Y023431D01*
X032181Y022931D01*
X031931Y022681D01*
X032181Y022431D01*
X032181Y021931D01*
X031931Y021681D01*
X032181Y021431D01*
X032181Y020931D01*
X031931Y020681D01*
X032181Y020431D01*
X032181Y019931D01*
X031931Y019681D01*
X032181Y019431D01*
X032181Y018931D01*
X031931Y018681D01*
X032181Y018431D01*
X032181Y017931D01*
X031931Y017681D01*
X031431Y017681D01*
X036181Y017931D02*
X036431Y017681D01*
X036931Y017681D01*
X037181Y017931D01*
X037181Y018431D01*
X036931Y018681D01*
X037181Y018931D01*
X037181Y019431D01*
X036931Y019681D01*
X037181Y019931D01*
X037181Y020431D01*
X036931Y020681D01*
X037181Y020931D01*
X037181Y021431D01*
X036931Y021681D01*
X037181Y021931D01*
X037181Y022431D01*
X036931Y022681D01*
X037181Y022931D01*
X037181Y023431D01*
X036931Y023681D01*
X037181Y023931D01*
X037181Y024431D01*
X036931Y024681D01*
X037181Y024931D01*
X037181Y025431D01*
X036931Y025681D01*
X037181Y025931D01*
X037181Y026431D01*
X036931Y026681D01*
X037181Y026931D01*
X037181Y027431D01*
X036931Y027681D01*
X036431Y027681D01*
X036181Y027431D01*
X036181Y026931D01*
X036431Y026681D01*
X036181Y026431D01*
X036181Y025931D01*
X036431Y025681D01*
X036181Y025431D01*
X036181Y024931D01*
X036431Y024681D01*
X036181Y024431D01*
X036181Y023931D01*
X036431Y023681D01*
X036181Y023431D01*
X036181Y022931D01*
X036431Y022681D01*
X036181Y022431D01*
X036181Y021931D01*
X036431Y021681D01*
X036181Y021431D01*
X036181Y020931D01*
X036431Y020681D01*
X036181Y020431D01*
X036181Y019931D01*
X036431Y019681D01*
X036181Y019431D01*
X036181Y018931D01*
X036431Y018681D01*
X036181Y018431D01*
X036181Y017931D01*
X037681Y016431D02*
X037681Y014931D01*
X031858Y012181D02*
X031861Y012295D01*
X031869Y012409D01*
X031883Y012522D01*
X031903Y012634D01*
X031928Y012745D01*
X031958Y012855D01*
X031994Y012964D01*
X032035Y013070D01*
X032081Y013174D01*
X032132Y013276D01*
X032188Y013375D01*
X032249Y013472D01*
X032315Y013565D01*
X032385Y013655D01*
X032460Y013741D01*
X032538Y013824D01*
X032621Y013902D01*
X032707Y013977D01*
X032797Y014047D01*
X032890Y014113D01*
X032987Y014174D01*
X033086Y014230D01*
X033188Y014281D01*
X033292Y014327D01*
X033398Y014368D01*
X033507Y014404D01*
X033617Y014434D01*
X033728Y014459D01*
X033840Y014479D01*
X033953Y014493D01*
X034067Y014501D01*
X034181Y014504D01*
X034295Y014501D01*
X034409Y014493D01*
X034522Y014479D01*
X034634Y014459D01*
X034745Y014434D01*
X034855Y014404D01*
X034964Y014368D01*
X035070Y014327D01*
X035174Y014281D01*
X035276Y014230D01*
X035375Y014174D01*
X035472Y014113D01*
X035565Y014047D01*
X035655Y013977D01*
X035741Y013902D01*
X035824Y013824D01*
X035902Y013741D01*
X035977Y013655D01*
X036047Y013565D01*
X036113Y013472D01*
X036174Y013375D01*
X036230Y013276D01*
X036281Y013174D01*
X036327Y013070D01*
X036368Y012964D01*
X036404Y012855D01*
X036434Y012745D01*
X036459Y012634D01*
X036479Y012522D01*
X036493Y012409D01*
X036501Y012295D01*
X036504Y012181D01*
X036501Y012067D01*
X036493Y011953D01*
X036479Y011840D01*
X036459Y011728D01*
X036434Y011617D01*
X036404Y011507D01*
X036368Y011398D01*
X036327Y011292D01*
X036281Y011188D01*
X036230Y011086D01*
X036174Y010987D01*
X036113Y010890D01*
X036047Y010797D01*
X035977Y010707D01*
X035902Y010621D01*
X035824Y010538D01*
X035741Y010460D01*
X035655Y010385D01*
X035565Y010315D01*
X035472Y010249D01*
X035375Y010188D01*
X035276Y010132D01*
X035174Y010081D01*
X035070Y010035D01*
X034964Y009994D01*
X034855Y009958D01*
X034745Y009928D01*
X034634Y009903D01*
X034522Y009883D01*
X034409Y009869D01*
X034295Y009861D01*
X034181Y009858D01*
X034067Y009861D01*
X033953Y009869D01*
X033840Y009883D01*
X033728Y009903D01*
X033617Y009928D01*
X033507Y009958D01*
X033398Y009994D01*
X033292Y010035D01*
X033188Y010081D01*
X033086Y010132D01*
X032987Y010188D01*
X032890Y010249D01*
X032797Y010315D01*
X032707Y010385D01*
X032621Y010460D01*
X032538Y010538D01*
X032460Y010621D01*
X032385Y010707D01*
X032315Y010797D01*
X032249Y010890D01*
X032188Y010987D01*
X032132Y011086D01*
X032081Y011188D01*
X032035Y011292D01*
X031994Y011398D01*
X031958Y011507D01*
X031928Y011617D01*
X031903Y011728D01*
X031883Y011840D01*
X031869Y011953D01*
X031861Y012067D01*
X031858Y012181D01*
X035289Y005381D02*
X036081Y005381D01*
X036881Y005031D02*
X036881Y003331D01*
X036081Y002981D02*
X035277Y002981D01*
X034481Y003331D02*
X034481Y005031D01*
X033381Y004531D02*
X033381Y002831D01*
X032581Y002481D02*
X031777Y002481D01*
X030981Y002831D02*
X030981Y004531D01*
X031789Y004881D02*
X032581Y004881D01*
X031481Y003681D02*
X031483Y003733D01*
X031489Y003785D01*
X031499Y003837D01*
X031512Y003887D01*
X031529Y003937D01*
X031550Y003985D01*
X031575Y004031D01*
X031603Y004075D01*
X031634Y004117D01*
X031668Y004157D01*
X031705Y004194D01*
X031745Y004228D01*
X031787Y004259D01*
X031831Y004287D01*
X031877Y004312D01*
X031925Y004333D01*
X031975Y004350D01*
X032025Y004363D01*
X032077Y004373D01*
X032129Y004379D01*
X032181Y004381D01*
X032233Y004379D01*
X032285Y004373D01*
X032337Y004363D01*
X032387Y004350D01*
X032437Y004333D01*
X032485Y004312D01*
X032531Y004287D01*
X032575Y004259D01*
X032617Y004228D01*
X032657Y004194D01*
X032694Y004157D01*
X032728Y004117D01*
X032759Y004075D01*
X032787Y004031D01*
X032812Y003985D01*
X032833Y003937D01*
X032850Y003887D01*
X032863Y003837D01*
X032873Y003785D01*
X032879Y003733D01*
X032881Y003681D01*
X032879Y003629D01*
X032873Y003577D01*
X032863Y003525D01*
X032850Y003475D01*
X032833Y003425D01*
X032812Y003377D01*
X032787Y003331D01*
X032759Y003287D01*
X032728Y003245D01*
X032694Y003205D01*
X032657Y003168D01*
X032617Y003134D01*
X032575Y003103D01*
X032531Y003075D01*
X032485Y003050D01*
X032437Y003029D01*
X032387Y003012D01*
X032337Y002999D01*
X032285Y002989D01*
X032233Y002983D01*
X032181Y002981D01*
X032129Y002983D01*
X032077Y002989D01*
X032025Y002999D01*
X031975Y003012D01*
X031925Y003029D01*
X031877Y003050D01*
X031831Y003075D01*
X031787Y003103D01*
X031745Y003134D01*
X031705Y003168D01*
X031668Y003205D01*
X031634Y003245D01*
X031603Y003287D01*
X031575Y003331D01*
X031550Y003377D01*
X031529Y003425D01*
X031512Y003475D01*
X031499Y003525D01*
X031489Y003577D01*
X031483Y003629D01*
X031481Y003681D01*
X034681Y001981D02*
X034681Y001681D01*
X034581Y001681D01*
X034681Y001681D02*
X034681Y001381D01*
X036681Y001381D01*
X036681Y001681D01*
X036781Y001681D01*
X036681Y001681D02*
X036681Y001981D01*
X034681Y001981D01*
X034981Y004181D02*
X034983Y004233D01*
X034989Y004285D01*
X034999Y004337D01*
X035012Y004387D01*
X035029Y004437D01*
X035050Y004485D01*
X035075Y004531D01*
X035103Y004575D01*
X035134Y004617D01*
X035168Y004657D01*
X035205Y004694D01*
X035245Y004728D01*
X035287Y004759D01*
X035331Y004787D01*
X035377Y004812D01*
X035425Y004833D01*
X035475Y004850D01*
X035525Y004863D01*
X035577Y004873D01*
X035629Y004879D01*
X035681Y004881D01*
X035733Y004879D01*
X035785Y004873D01*
X035837Y004863D01*
X035887Y004850D01*
X035937Y004833D01*
X035985Y004812D01*
X036031Y004787D01*
X036075Y004759D01*
X036117Y004728D01*
X036157Y004694D01*
X036194Y004657D01*
X036228Y004617D01*
X036259Y004575D01*
X036287Y004531D01*
X036312Y004485D01*
X036333Y004437D01*
X036350Y004387D01*
X036363Y004337D01*
X036373Y004285D01*
X036379Y004233D01*
X036381Y004181D01*
X036379Y004129D01*
X036373Y004077D01*
X036363Y004025D01*
X036350Y003975D01*
X036333Y003925D01*
X036312Y003877D01*
X036287Y003831D01*
X036259Y003787D01*
X036228Y003745D01*
X036194Y003705D01*
X036157Y003668D01*
X036117Y003634D01*
X036075Y003603D01*
X036031Y003575D01*
X035985Y003550D01*
X035937Y003529D01*
X035887Y003512D01*
X035837Y003499D01*
X035785Y003489D01*
X035733Y003483D01*
X035681Y003481D01*
X035629Y003483D01*
X035577Y003489D01*
X035525Y003499D01*
X035475Y003512D01*
X035425Y003529D01*
X035377Y003550D01*
X035331Y003575D01*
X035287Y003603D01*
X035245Y003634D01*
X035205Y003668D01*
X035168Y003705D01*
X035134Y003745D01*
X035103Y003787D01*
X035075Y003831D01*
X035050Y003877D01*
X035029Y003925D01*
X035012Y003975D01*
X034999Y004025D01*
X034989Y004077D01*
X034983Y004129D01*
X034981Y004181D01*
X020181Y021681D02*
X020181Y021981D01*
X020481Y021981D01*
X020481Y023381D01*
X020181Y023381D01*
X020181Y023681D01*
X020181Y023381D02*
X019881Y023381D01*
X019881Y021981D01*
X020181Y021981D01*
X020431Y023181D02*
X019931Y023181D01*
X015981Y023130D02*
X015981Y022233D01*
X015681Y022233D01*
X015681Y022133D01*
X015681Y022233D02*
X015381Y022233D01*
X015381Y023130D01*
X015681Y023130D01*
X015681Y023230D01*
X015681Y023130D02*
X015981Y023130D01*
X014181Y024881D02*
X014181Y025181D01*
X014281Y025181D01*
X014181Y025181D02*
X014181Y025481D01*
X012181Y025481D01*
X012181Y025181D01*
X012081Y025181D01*
X012181Y025181D02*
X012181Y024881D01*
X014181Y024881D01*
X010981Y023130D02*
X010681Y023130D01*
X010681Y023230D01*
X010681Y023130D02*
X010381Y023130D01*
X010381Y022233D01*
X010681Y022233D01*
X010681Y022133D01*
X010681Y022233D02*
X010981Y022233D01*
X010981Y023130D01*
D11*
X008781Y005681D02*
X008781Y002681D01*
X011581Y002681D01*
X011581Y005681D01*
X008781Y005681D01*
X011681Y005681D02*
X011681Y002681D01*
X012181Y021681D02*
X012681Y021681D01*
X012681Y022181D01*
X013681Y022181D01*
X013681Y021681D01*
X012681Y021681D01*
X012181Y021681D02*
X012181Y023881D01*
X014181Y023881D01*
X014181Y021681D01*
X013681Y021681D01*
D12*
X015231Y018681D02*
X011131Y018681D01*
X011131Y013781D01*
X011481Y013781D01*
X011481Y013181D01*
X011131Y013181D01*
X011131Y012431D01*
X015231Y012431D01*
X015231Y013181D01*
X014881Y013181D01*
X014881Y013781D01*
X015231Y013781D01*
X015231Y018681D01*
X012471Y013781D02*
X012473Y013834D01*
X012479Y013887D01*
X012489Y013939D01*
X012503Y013990D01*
X012520Y014040D01*
X012541Y014089D01*
X012566Y014136D01*
X012594Y014181D01*
X012626Y014224D01*
X012661Y014264D01*
X012698Y014301D01*
X012738Y014336D01*
X012781Y014368D01*
X012826Y014396D01*
X012873Y014421D01*
X012922Y014442D01*
X012972Y014459D01*
X013023Y014473D01*
X013075Y014483D01*
X013128Y014489D01*
X013181Y014491D01*
X013234Y014489D01*
X013287Y014483D01*
X013339Y014473D01*
X013390Y014459D01*
X013440Y014442D01*
X013489Y014421D01*
X013536Y014396D01*
X013581Y014368D01*
X013624Y014336D01*
X013664Y014301D01*
X013701Y014264D01*
X013736Y014224D01*
X013768Y014181D01*
X013796Y014136D01*
X013821Y014089D01*
X013842Y014040D01*
X013859Y013990D01*
X013873Y013939D01*
X013883Y013887D01*
X013889Y013834D01*
X013891Y013781D01*
X013889Y013728D01*
X013883Y013675D01*
X013873Y013623D01*
X013859Y013572D01*
X013842Y013522D01*
X013821Y013473D01*
X013796Y013426D01*
X013768Y013381D01*
X013736Y013338D01*
X013701Y013298D01*
X013664Y013261D01*
X013624Y013226D01*
X013581Y013194D01*
X013536Y013166D01*
X013489Y013141D01*
X013440Y013120D01*
X013390Y013103D01*
X013339Y013089D01*
X013287Y013079D01*
X013234Y013073D01*
X013181Y013071D01*
X013128Y013073D01*
X013075Y013079D01*
X013023Y013089D01*
X012972Y013103D01*
X012922Y013120D01*
X012873Y013141D01*
X012826Y013166D01*
X012781Y013194D01*
X012738Y013226D01*
X012698Y013261D01*
X012661Y013298D01*
X012626Y013338D01*
X012594Y013381D01*
X012566Y013426D01*
X012541Y013473D01*
X012520Y013522D01*
X012503Y013572D01*
X012489Y013623D01*
X012479Y013675D01*
X012473Y013728D01*
X012471Y013781D01*
X028181Y014681D02*
X028183Y014744D01*
X028189Y014806D01*
X028199Y014868D01*
X028212Y014930D01*
X028230Y014990D01*
X028251Y015049D01*
X028276Y015107D01*
X028305Y015163D01*
X028337Y015217D01*
X028372Y015269D01*
X028410Y015318D01*
X028452Y015366D01*
X028496Y015410D01*
X028544Y015452D01*
X028593Y015490D01*
X028645Y015525D01*
X028699Y015557D01*
X028755Y015586D01*
X028813Y015611D01*
X028872Y015632D01*
X028932Y015650D01*
X028994Y015663D01*
X029056Y015673D01*
X029118Y015679D01*
X029181Y015681D01*
X029244Y015679D01*
X029306Y015673D01*
X029368Y015663D01*
X029430Y015650D01*
X029490Y015632D01*
X029549Y015611D01*
X029607Y015586D01*
X029663Y015557D01*
X029717Y015525D01*
X029769Y015490D01*
X029818Y015452D01*
X029866Y015410D01*
X029910Y015366D01*
X029952Y015318D01*
X029990Y015269D01*
X030025Y015217D01*
X030057Y015163D01*
X030086Y015107D01*
X030111Y015049D01*
X030132Y014990D01*
X030150Y014930D01*
X030163Y014868D01*
X030173Y014806D01*
X030179Y014744D01*
X030181Y014681D01*
X030179Y014618D01*
X030173Y014556D01*
X030163Y014494D01*
X030150Y014432D01*
X030132Y014372D01*
X030111Y014313D01*
X030086Y014255D01*
X030057Y014199D01*
X030025Y014145D01*
X029990Y014093D01*
X029952Y014044D01*
X029910Y013996D01*
X029866Y013952D01*
X029818Y013910D01*
X029769Y013872D01*
X029717Y013837D01*
X029663Y013805D01*
X029607Y013776D01*
X029549Y013751D01*
X029490Y013730D01*
X029430Y013712D01*
X029368Y013699D01*
X029306Y013689D01*
X029244Y013683D01*
X029181Y013681D01*
X029118Y013683D01*
X029056Y013689D01*
X028994Y013699D01*
X028932Y013712D01*
X028872Y013730D01*
X028813Y013751D01*
X028755Y013776D01*
X028699Y013805D01*
X028645Y013837D01*
X028593Y013872D01*
X028544Y013910D01*
X028496Y013952D01*
X028452Y013996D01*
X028410Y014044D01*
X028372Y014093D01*
X028337Y014145D01*
X028305Y014199D01*
X028276Y014255D01*
X028251Y014313D01*
X028230Y014372D01*
X028212Y014432D01*
X028199Y014494D01*
X028189Y014556D01*
X028183Y014618D01*
X028181Y014681D01*
X028181Y010181D02*
X028183Y010244D01*
X028189Y010306D01*
X028199Y010368D01*
X028212Y010430D01*
X028230Y010490D01*
X028251Y010549D01*
X028276Y010607D01*
X028305Y010663D01*
X028337Y010717D01*
X028372Y010769D01*
X028410Y010818D01*
X028452Y010866D01*
X028496Y010910D01*
X028544Y010952D01*
X028593Y010990D01*
X028645Y011025D01*
X028699Y011057D01*
X028755Y011086D01*
X028813Y011111D01*
X028872Y011132D01*
X028932Y011150D01*
X028994Y011163D01*
X029056Y011173D01*
X029118Y011179D01*
X029181Y011181D01*
X029244Y011179D01*
X029306Y011173D01*
X029368Y011163D01*
X029430Y011150D01*
X029490Y011132D01*
X029549Y011111D01*
X029607Y011086D01*
X029663Y011057D01*
X029717Y011025D01*
X029769Y010990D01*
X029818Y010952D01*
X029866Y010910D01*
X029910Y010866D01*
X029952Y010818D01*
X029990Y010769D01*
X030025Y010717D01*
X030057Y010663D01*
X030086Y010607D01*
X030111Y010549D01*
X030132Y010490D01*
X030150Y010430D01*
X030163Y010368D01*
X030173Y010306D01*
X030179Y010244D01*
X030181Y010181D01*
X030179Y010118D01*
X030173Y010056D01*
X030163Y009994D01*
X030150Y009932D01*
X030132Y009872D01*
X030111Y009813D01*
X030086Y009755D01*
X030057Y009699D01*
X030025Y009645D01*
X029990Y009593D01*
X029952Y009544D01*
X029910Y009496D01*
X029866Y009452D01*
X029818Y009410D01*
X029769Y009372D01*
X029717Y009337D01*
X029663Y009305D01*
X029607Y009276D01*
X029549Y009251D01*
X029490Y009230D01*
X029430Y009212D01*
X029368Y009199D01*
X029306Y009189D01*
X029244Y009183D01*
X029181Y009181D01*
X029118Y009183D01*
X029056Y009189D01*
X028994Y009199D01*
X028932Y009212D01*
X028872Y009230D01*
X028813Y009251D01*
X028755Y009276D01*
X028699Y009305D01*
X028645Y009337D01*
X028593Y009372D01*
X028544Y009410D01*
X028496Y009452D01*
X028452Y009496D01*
X028410Y009544D01*
X028372Y009593D01*
X028337Y009645D01*
X028305Y009699D01*
X028276Y009755D01*
X028251Y009813D01*
X028230Y009872D01*
X028212Y009932D01*
X028199Y009994D01*
X028189Y010056D01*
X028183Y010118D01*
X028181Y010181D01*
X035681Y015681D02*
X035683Y015744D01*
X035689Y015806D01*
X035699Y015868D01*
X035712Y015930D01*
X035730Y015990D01*
X035751Y016049D01*
X035776Y016107D01*
X035805Y016163D01*
X035837Y016217D01*
X035872Y016269D01*
X035910Y016318D01*
X035952Y016366D01*
X035996Y016410D01*
X036044Y016452D01*
X036093Y016490D01*
X036145Y016525D01*
X036199Y016557D01*
X036255Y016586D01*
X036313Y016611D01*
X036372Y016632D01*
X036432Y016650D01*
X036494Y016663D01*
X036556Y016673D01*
X036618Y016679D01*
X036681Y016681D01*
X036744Y016679D01*
X036806Y016673D01*
X036868Y016663D01*
X036930Y016650D01*
X036990Y016632D01*
X037049Y016611D01*
X037107Y016586D01*
X037163Y016557D01*
X037217Y016525D01*
X037269Y016490D01*
X037318Y016452D01*
X037366Y016410D01*
X037410Y016366D01*
X037452Y016318D01*
X037490Y016269D01*
X037525Y016217D01*
X037557Y016163D01*
X037586Y016107D01*
X037611Y016049D01*
X037632Y015990D01*
X037650Y015930D01*
X037663Y015868D01*
X037673Y015806D01*
X037679Y015744D01*
X037681Y015681D01*
X037679Y015618D01*
X037673Y015556D01*
X037663Y015494D01*
X037650Y015432D01*
X037632Y015372D01*
X037611Y015313D01*
X037586Y015255D01*
X037557Y015199D01*
X037525Y015145D01*
X037490Y015093D01*
X037452Y015044D01*
X037410Y014996D01*
X037366Y014952D01*
X037318Y014910D01*
X037269Y014872D01*
X037217Y014837D01*
X037163Y014805D01*
X037107Y014776D01*
X037049Y014751D01*
X036990Y014730D01*
X036930Y014712D01*
X036868Y014699D01*
X036806Y014689D01*
X036744Y014683D01*
X036681Y014681D01*
X036618Y014683D01*
X036556Y014689D01*
X036494Y014699D01*
X036432Y014712D01*
X036372Y014730D01*
X036313Y014751D01*
X036255Y014776D01*
X036199Y014805D01*
X036145Y014837D01*
X036093Y014872D01*
X036044Y014910D01*
X035996Y014952D01*
X035952Y014996D01*
X035910Y015044D01*
X035872Y015093D01*
X035837Y015145D01*
X035805Y015199D01*
X035776Y015255D01*
X035751Y015313D01*
X035730Y015372D01*
X035712Y015432D01*
X035699Y015494D01*
X035689Y015556D01*
X035683Y015618D01*
X035681Y015681D01*
D13*
X014981Y015181D02*
X014981Y018431D01*
X011381Y018431D01*
X011381Y015181D01*
X014981Y015181D01*
D14*
X014767Y014945D02*
X014826Y014887D01*
X014826Y014711D01*
X014709Y014711D02*
X014709Y014887D01*
X014767Y014945D01*
X014709Y014887D02*
X014651Y014945D01*
X014592Y014945D01*
X014592Y014711D01*
X014467Y014711D02*
X014467Y014887D01*
X014408Y014945D01*
X014350Y014887D01*
X014350Y014711D01*
X014233Y014711D02*
X014233Y014945D01*
X014291Y014945D01*
X014350Y014887D01*
X014108Y014945D02*
X014108Y015003D01*
X014049Y015062D01*
X013932Y015062D01*
X013874Y015003D01*
X014108Y014945D02*
X013874Y014711D01*
X014108Y014711D01*
X013751Y014711D02*
X013751Y014770D01*
X013693Y014770D01*
X013693Y014711D01*
X013751Y014711D01*
X013635Y014595D01*
X013509Y014770D02*
X013451Y014711D01*
X013334Y014711D01*
X013276Y014770D01*
X013276Y014887D02*
X013392Y014945D01*
X013451Y014945D01*
X013509Y014887D01*
X013509Y014770D01*
X013276Y014887D02*
X013276Y015062D01*
X013509Y015062D01*
X013033Y015062D02*
X012916Y014945D01*
X012791Y014945D02*
X012791Y014711D01*
X012916Y014711D02*
X013150Y014711D01*
X013033Y014711D02*
X013033Y015062D01*
X012791Y014945D02*
X012674Y015062D01*
X012557Y014945D01*
X012557Y014711D01*
X012557Y014887D02*
X012791Y014887D01*
D15*
X013181Y018856D03*
X014181Y018856D03*
X012181Y018856D03*
D16*
X019986Y021223D02*
X019986Y021298D01*
X020011Y021323D01*
X020111Y021323D01*
X020136Y021298D01*
X020136Y021223D01*
X019986Y021223D01*
X019986Y021370D02*
X019986Y021420D01*
X019986Y021395D02*
X020136Y021395D01*
X020136Y021370D02*
X020136Y021420D01*
X020111Y021469D02*
X020136Y021494D01*
X020136Y021544D01*
X020111Y021569D01*
X020011Y021569D01*
X019986Y021544D01*
X019986Y021494D01*
X020011Y021469D01*
X020111Y021469D01*
X020136Y021616D02*
X020136Y021691D01*
X020111Y021716D01*
X020011Y021716D01*
X019986Y021691D01*
X019986Y021616D01*
X020136Y021616D01*
X020136Y021763D02*
X020136Y021863D01*
X020061Y021910D02*
X020061Y022011D01*
X020111Y022058D02*
X020136Y022058D01*
X020136Y022158D01*
X020136Y022205D02*
X020136Y022305D01*
X020136Y022352D02*
X019986Y022352D01*
X020136Y022453D01*
X019986Y022453D01*
X019986Y022500D02*
X020136Y022500D01*
X020136Y022600D01*
X020136Y022647D02*
X019986Y022647D01*
X019986Y022722D01*
X020011Y022747D01*
X020061Y022747D01*
X020086Y022722D01*
X020086Y022647D01*
X020086Y022697D02*
X020136Y022747D01*
X020136Y022794D02*
X019986Y022794D01*
X019986Y022869D01*
X020011Y022894D01*
X020061Y022894D01*
X020086Y022869D01*
X020086Y022794D01*
X019986Y022942D02*
X019986Y023042D01*
X019986Y023089D02*
X020136Y023089D01*
X020061Y023089D02*
X020061Y023189D01*
X019986Y023189D02*
X020136Y023189D01*
X020136Y022992D02*
X019986Y022992D01*
X019986Y022600D02*
X019986Y022500D01*
X020061Y022500D02*
X020061Y022550D01*
X019986Y022305D02*
X019986Y022205D01*
X020136Y022205D01*
X020061Y022205D02*
X020061Y022255D01*
X020011Y022158D02*
X020111Y022058D01*
X019986Y022058D02*
X019986Y022158D01*
X020011Y022158D01*
X019986Y021863D02*
X019986Y021763D01*
X020136Y021763D01*
X020061Y021763D02*
X020061Y021813D01*
X030213Y015461D02*
X030141Y015407D01*
X030142Y015408D02*
X030099Y015461D01*
X030054Y015512D01*
X030005Y015560D01*
X029954Y015605D01*
X029900Y015648D01*
X029844Y015687D01*
X029786Y015723D01*
X029726Y015756D01*
X029665Y015785D01*
X029601Y015810D01*
X029537Y015832D01*
X029471Y015851D01*
X029404Y015865D01*
X029337Y015876D01*
X029269Y015883D01*
X029201Y015886D01*
X029132Y015885D01*
X029064Y015880D01*
X028996Y015872D01*
X028929Y015859D01*
X028863Y015843D01*
X028798Y015823D01*
X028733Y015800D01*
X028671Y015773D01*
X028610Y015742D01*
X028551Y015708D01*
X028493Y015671D01*
X028438Y015630D01*
X028386Y015586D01*
X028336Y015540D01*
X028289Y015491D01*
X028244Y015439D01*
X028203Y015385D01*
X028164Y015328D01*
X028129Y015269D01*
X028098Y015209D01*
X028070Y015147D01*
X028045Y015083D01*
X028024Y015018D01*
X028007Y014952D01*
X027993Y014885D01*
X027984Y014817D01*
X027978Y014749D01*
X027976Y014681D01*
X027978Y014613D01*
X027984Y014545D01*
X027993Y014477D01*
X028007Y014410D01*
X028024Y014344D01*
X028045Y014279D01*
X028070Y014215D01*
X028098Y014153D01*
X028129Y014093D01*
X028164Y014034D01*
X028203Y013977D01*
X028244Y013923D01*
X028289Y013871D01*
X028336Y013822D01*
X028386Y013776D01*
X028438Y013732D01*
X028493Y013691D01*
X028551Y013654D01*
X028610Y013620D01*
X028671Y013589D01*
X028733Y013562D01*
X028798Y013539D01*
X028863Y013519D01*
X028929Y013503D01*
X028996Y013490D01*
X029064Y013482D01*
X029132Y013477D01*
X029201Y013476D01*
X029269Y013479D01*
X029337Y013486D01*
X029404Y013497D01*
X029471Y013511D01*
X029537Y013530D01*
X029601Y013552D01*
X029665Y013577D01*
X029726Y013606D01*
X029786Y013639D01*
X029844Y013675D01*
X029900Y013714D01*
X029954Y013757D01*
X030005Y013802D01*
X030054Y013850D01*
X030099Y013901D01*
X030142Y013954D01*
X030213Y013901D01*
X030214Y013900D01*
X030170Y013845D01*
X030122Y013792D01*
X030072Y013741D01*
X030019Y013694D01*
X029964Y013650D01*
X029906Y013608D01*
X029846Y013570D01*
X029785Y013535D01*
X029721Y013504D01*
X029656Y013476D01*
X029589Y013452D01*
X029521Y013431D01*
X029452Y013415D01*
X029382Y013402D01*
X029312Y013393D01*
X029241Y013387D01*
X029170Y013386D01*
X029099Y013389D01*
X029028Y013395D01*
X028958Y013405D01*
X028889Y013419D01*
X028820Y013437D01*
X028752Y013459D01*
X028686Y013484D01*
X028621Y013513D01*
X028558Y013546D01*
X028497Y013582D01*
X028438Y013621D01*
X028381Y013663D01*
X028326Y013708D01*
X028274Y013757D01*
X028225Y013808D01*
X028178Y013861D01*
X028135Y013918D01*
X028095Y013976D01*
X028058Y014037D01*
X028024Y014099D01*
X027994Y014163D01*
X027967Y014229D01*
X027944Y014296D01*
X027925Y014365D01*
X027910Y014434D01*
X027898Y014504D01*
X027890Y014575D01*
X027886Y014646D01*
X027886Y014716D01*
X027890Y014787D01*
X027898Y014858D01*
X027910Y014928D01*
X027925Y014997D01*
X027944Y015066D01*
X027967Y015133D01*
X027994Y015199D01*
X028024Y015263D01*
X028058Y015325D01*
X028095Y015386D01*
X028135Y015444D01*
X028178Y015501D01*
X028225Y015554D01*
X028274Y015605D01*
X028326Y015654D01*
X028381Y015699D01*
X028438Y015741D01*
X028497Y015780D01*
X028558Y015816D01*
X028621Y015849D01*
X028686Y015878D01*
X028752Y015903D01*
X028820Y015925D01*
X028889Y015943D01*
X028958Y015957D01*
X029028Y015967D01*
X029099Y015973D01*
X029170Y015976D01*
X029241Y015975D01*
X029312Y015969D01*
X029382Y015960D01*
X029452Y015947D01*
X029521Y015931D01*
X029589Y015910D01*
X029656Y015886D01*
X029721Y015858D01*
X029785Y015827D01*
X029846Y015792D01*
X029906Y015754D01*
X029964Y015712D01*
X030019Y015668D01*
X030072Y015621D01*
X030122Y015570D01*
X030170Y015517D01*
X030214Y015462D01*
X030207Y015457D01*
X030162Y015512D01*
X030115Y015565D01*
X030064Y015616D01*
X030011Y015663D01*
X029955Y015708D01*
X029897Y015749D01*
X029837Y015787D01*
X029775Y015822D01*
X029711Y015853D01*
X029645Y015880D01*
X029578Y015904D01*
X029509Y015924D01*
X029440Y015941D01*
X029370Y015953D01*
X029299Y015962D01*
X029228Y015966D01*
X029157Y015967D01*
X029086Y015963D01*
X029015Y015956D01*
X028944Y015945D01*
X028875Y015930D01*
X028806Y015911D01*
X028738Y015888D01*
X028672Y015862D01*
X028607Y015832D01*
X028545Y015798D01*
X028484Y015762D01*
X028425Y015721D01*
X028368Y015678D01*
X028314Y015631D01*
X028263Y015582D01*
X028215Y015529D01*
X028169Y015475D01*
X028127Y015417D01*
X028088Y015358D01*
X028052Y015296D01*
X028019Y015233D01*
X027991Y015168D01*
X027965Y015101D01*
X027944Y015033D01*
X027926Y014964D01*
X027913Y014894D01*
X027903Y014823D01*
X027897Y014752D01*
X027895Y014681D01*
X027897Y014610D01*
X027903Y014539D01*
X027913Y014468D01*
X027926Y014398D01*
X027944Y014329D01*
X027965Y014261D01*
X027991Y014194D01*
X028019Y014129D01*
X028052Y014066D01*
X028088Y014004D01*
X028127Y013945D01*
X028169Y013887D01*
X028215Y013833D01*
X028263Y013780D01*
X028314Y013731D01*
X028368Y013684D01*
X028425Y013641D01*
X028484Y013600D01*
X028545Y013564D01*
X028607Y013530D01*
X028672Y013500D01*
X028738Y013474D01*
X028806Y013451D01*
X028875Y013432D01*
X028944Y013417D01*
X029015Y013406D01*
X029086Y013399D01*
X029157Y013395D01*
X029228Y013396D01*
X029299Y013400D01*
X029370Y013409D01*
X029440Y013421D01*
X029509Y013438D01*
X029578Y013458D01*
X029645Y013482D01*
X029711Y013509D01*
X029775Y013540D01*
X029837Y013575D01*
X029897Y013613D01*
X029955Y013654D01*
X030011Y013699D01*
X030064Y013746D01*
X030115Y013797D01*
X030162Y013850D01*
X030207Y013905D01*
X030200Y013911D01*
X030155Y013856D01*
X030108Y013803D01*
X030058Y013753D01*
X030005Y013706D01*
X029950Y013662D01*
X029892Y013620D01*
X029833Y013583D01*
X029771Y013548D01*
X029707Y013517D01*
X029642Y013490D01*
X029575Y013466D01*
X029507Y013446D01*
X029438Y013430D01*
X029369Y013418D01*
X029298Y013409D01*
X029228Y013405D01*
X029157Y013404D01*
X029086Y013408D01*
X029016Y013415D01*
X028946Y013426D01*
X028877Y013441D01*
X028809Y013460D01*
X028741Y013482D01*
X028676Y013508D01*
X028611Y013538D01*
X028549Y013571D01*
X028489Y013608D01*
X028430Y013648D01*
X028374Y013691D01*
X028320Y013737D01*
X028270Y013787D01*
X028221Y013838D01*
X028176Y013893D01*
X028134Y013950D01*
X028095Y014009D01*
X028060Y014070D01*
X028027Y014133D01*
X027999Y014198D01*
X027974Y014264D01*
X027953Y014332D01*
X027935Y014400D01*
X027922Y014470D01*
X027912Y014540D01*
X027906Y014610D01*
X027904Y014681D01*
X027906Y014752D01*
X027912Y014822D01*
X027922Y014892D01*
X027935Y014962D01*
X027953Y015030D01*
X027974Y015098D01*
X027999Y015164D01*
X028027Y015229D01*
X028060Y015292D01*
X028095Y015353D01*
X028134Y015412D01*
X028176Y015469D01*
X028221Y015524D01*
X028270Y015575D01*
X028320Y015625D01*
X028374Y015671D01*
X028430Y015714D01*
X028489Y015754D01*
X028549Y015791D01*
X028611Y015824D01*
X028676Y015854D01*
X028741Y015880D01*
X028809Y015902D01*
X028877Y015921D01*
X028946Y015936D01*
X029016Y015947D01*
X029086Y015954D01*
X029157Y015958D01*
X029228Y015957D01*
X029298Y015953D01*
X029369Y015944D01*
X029438Y015932D01*
X029507Y015916D01*
X029575Y015896D01*
X029642Y015872D01*
X029707Y015845D01*
X029771Y015814D01*
X029833Y015779D01*
X029892Y015742D01*
X029950Y015700D01*
X030005Y015656D01*
X030058Y015609D01*
X030108Y015559D01*
X030155Y015506D01*
X030200Y015451D01*
X030192Y015446D01*
X030148Y015501D01*
X030100Y015554D01*
X030050Y015604D01*
X029997Y015652D01*
X029941Y015696D01*
X029883Y015737D01*
X029823Y015774D01*
X029761Y015809D01*
X029697Y015839D01*
X029631Y015866D01*
X029564Y015890D01*
X029496Y015909D01*
X029426Y015925D01*
X029356Y015937D01*
X029286Y015945D01*
X029215Y015949D01*
X029144Y015948D01*
X029073Y015944D01*
X029002Y015936D01*
X028932Y015924D01*
X028863Y015908D01*
X028795Y015889D01*
X028727Y015865D01*
X028662Y015838D01*
X028598Y015807D01*
X028536Y015773D01*
X028476Y015735D01*
X028418Y015693D01*
X028362Y015649D01*
X028309Y015602D01*
X028259Y015551D01*
X028212Y015498D01*
X028167Y015443D01*
X028126Y015385D01*
X028089Y015325D01*
X028054Y015262D01*
X028023Y015198D01*
X027996Y015133D01*
X027973Y015066D01*
X027953Y014997D01*
X027937Y014928D01*
X027925Y014858D01*
X027917Y014787D01*
X027913Y014717D01*
X027913Y014645D01*
X027917Y014575D01*
X027925Y014504D01*
X027937Y014434D01*
X027953Y014365D01*
X027973Y014296D01*
X027996Y014229D01*
X028023Y014164D01*
X028054Y014100D01*
X028089Y014037D01*
X028126Y013977D01*
X028167Y013919D01*
X028212Y013864D01*
X028259Y013811D01*
X028309Y013760D01*
X028362Y013713D01*
X028418Y013669D01*
X028476Y013627D01*
X028536Y013589D01*
X028598Y013555D01*
X028662Y013524D01*
X028727Y013497D01*
X028795Y013473D01*
X028863Y013454D01*
X028932Y013438D01*
X029002Y013426D01*
X029073Y013418D01*
X029144Y013414D01*
X029215Y013413D01*
X029286Y013417D01*
X029356Y013425D01*
X029426Y013437D01*
X029496Y013453D01*
X029564Y013472D01*
X029631Y013496D01*
X029697Y013523D01*
X029761Y013553D01*
X029823Y013588D01*
X029883Y013625D01*
X029941Y013666D01*
X029997Y013710D01*
X030050Y013758D01*
X030100Y013808D01*
X030148Y013861D01*
X030192Y013916D01*
X030185Y013922D01*
X030141Y013867D01*
X030094Y013814D01*
X030044Y013764D01*
X029991Y013717D01*
X029936Y013673D01*
X029878Y013633D01*
X029819Y013595D01*
X029757Y013561D01*
X029693Y013531D01*
X029628Y013504D01*
X029561Y013481D01*
X029493Y013461D01*
X029425Y013446D01*
X029355Y013434D01*
X029285Y013426D01*
X029214Y013422D01*
X029144Y013423D01*
X029073Y013427D01*
X029003Y013435D01*
X028934Y013447D01*
X028865Y013462D01*
X028797Y013482D01*
X028731Y013505D01*
X028666Y013532D01*
X028602Y013563D01*
X028540Y013597D01*
X028481Y013635D01*
X028423Y013676D01*
X028368Y013720D01*
X028315Y013767D01*
X028266Y013817D01*
X028219Y013869D01*
X028175Y013925D01*
X028134Y013982D01*
X028096Y014042D01*
X028062Y014104D01*
X028032Y014167D01*
X028005Y014232D01*
X027981Y014299D01*
X027962Y014367D01*
X027946Y014436D01*
X027934Y014505D01*
X027926Y014575D01*
X027922Y014646D01*
X027922Y014716D01*
X027926Y014787D01*
X027934Y014857D01*
X027946Y014926D01*
X027962Y014995D01*
X027981Y015063D01*
X028005Y015130D01*
X028032Y015195D01*
X028062Y015258D01*
X028096Y015320D01*
X028134Y015380D01*
X028175Y015437D01*
X028219Y015493D01*
X028266Y015545D01*
X028315Y015595D01*
X028368Y015642D01*
X028423Y015686D01*
X028481Y015727D01*
X028540Y015765D01*
X028602Y015799D01*
X028666Y015830D01*
X028731Y015857D01*
X028797Y015880D01*
X028865Y015900D01*
X028934Y015915D01*
X029003Y015927D01*
X029073Y015935D01*
X029144Y015939D01*
X029214Y015940D01*
X029285Y015936D01*
X029355Y015928D01*
X029425Y015916D01*
X029493Y015901D01*
X029561Y015881D01*
X029628Y015858D01*
X029693Y015831D01*
X029757Y015801D01*
X029819Y015767D01*
X029878Y015729D01*
X029936Y015689D01*
X029991Y015645D01*
X030044Y015598D01*
X030094Y015548D01*
X030141Y015495D01*
X030185Y015440D01*
X030178Y015435D01*
X030134Y015490D01*
X030087Y015542D01*
X030038Y015591D01*
X029985Y015638D01*
X029931Y015681D01*
X029873Y015722D01*
X029814Y015759D01*
X029753Y015793D01*
X029689Y015823D01*
X029625Y015850D01*
X029558Y015873D01*
X029491Y015892D01*
X029423Y015907D01*
X029354Y015919D01*
X029284Y015927D01*
X029214Y015931D01*
X029144Y015930D01*
X029074Y015926D01*
X029005Y015918D01*
X028936Y015907D01*
X028867Y015891D01*
X028800Y015872D01*
X028734Y015848D01*
X028669Y015821D01*
X028606Y015791D01*
X028545Y015757D01*
X028486Y015720D01*
X028428Y015679D01*
X028374Y015635D01*
X028322Y015589D01*
X028272Y015539D01*
X028225Y015487D01*
X028182Y015432D01*
X028141Y015375D01*
X028104Y015316D01*
X028070Y015254D01*
X028040Y015191D01*
X028013Y015126D01*
X027990Y015060D01*
X027971Y014993D01*
X027955Y014925D01*
X027943Y014856D01*
X027935Y014786D01*
X027931Y014716D01*
X027931Y014646D01*
X027935Y014576D01*
X027943Y014506D01*
X027955Y014437D01*
X027971Y014369D01*
X027990Y014302D01*
X028013Y014236D01*
X028040Y014171D01*
X028070Y014108D01*
X028104Y014046D01*
X028141Y013987D01*
X028182Y013930D01*
X028225Y013875D01*
X028272Y013823D01*
X028322Y013773D01*
X028374Y013727D01*
X028428Y013683D01*
X028486Y013642D01*
X028545Y013605D01*
X028606Y013571D01*
X028669Y013541D01*
X028734Y013514D01*
X028800Y013490D01*
X028867Y013471D01*
X028936Y013455D01*
X029005Y013444D01*
X029074Y013436D01*
X029144Y013432D01*
X029214Y013431D01*
X029284Y013435D01*
X029354Y013443D01*
X029423Y013455D01*
X029491Y013470D01*
X029558Y013489D01*
X029625Y013512D01*
X029689Y013539D01*
X029753Y013569D01*
X029814Y013603D01*
X029873Y013640D01*
X029931Y013681D01*
X029985Y013724D01*
X030038Y013771D01*
X030087Y013820D01*
X030134Y013872D01*
X030178Y013927D01*
X030171Y013932D01*
X030127Y013878D01*
X030081Y013826D01*
X030032Y013777D01*
X029980Y013731D01*
X029925Y013688D01*
X029868Y013648D01*
X029809Y013611D01*
X029748Y013577D01*
X029686Y013547D01*
X029621Y013521D01*
X029556Y013498D01*
X029489Y013479D01*
X029421Y013463D01*
X029352Y013452D01*
X029283Y013444D01*
X029214Y013440D01*
X029144Y013441D01*
X029075Y013445D01*
X029006Y013452D01*
X028937Y013464D01*
X028870Y013480D01*
X028803Y013499D01*
X028737Y013522D01*
X028673Y013549D01*
X028610Y013579D01*
X028549Y013613D01*
X028491Y013650D01*
X028434Y013690D01*
X028380Y013733D01*
X028328Y013780D01*
X028279Y013829D01*
X028232Y013881D01*
X028189Y013935D01*
X028149Y013992D01*
X028112Y014051D01*
X028078Y014112D01*
X028048Y014175D01*
X028021Y014239D01*
X027998Y014304D01*
X027979Y014371D01*
X027964Y014439D01*
X027952Y014508D01*
X027944Y014577D01*
X027940Y014646D01*
X027940Y014716D01*
X027944Y014785D01*
X027952Y014854D01*
X027964Y014923D01*
X027979Y014991D01*
X027998Y015058D01*
X028021Y015123D01*
X028048Y015187D01*
X028078Y015250D01*
X028112Y015311D01*
X028149Y015370D01*
X028189Y015427D01*
X028232Y015481D01*
X028279Y015533D01*
X028328Y015582D01*
X028380Y015629D01*
X028434Y015672D01*
X028491Y015712D01*
X028549Y015749D01*
X028610Y015783D01*
X028673Y015813D01*
X028737Y015840D01*
X028803Y015863D01*
X028870Y015882D01*
X028937Y015898D01*
X029006Y015910D01*
X029075Y015917D01*
X029144Y015921D01*
X029214Y015922D01*
X029283Y015918D01*
X029352Y015910D01*
X029421Y015899D01*
X029489Y015883D01*
X029556Y015864D01*
X029621Y015841D01*
X029686Y015815D01*
X029748Y015785D01*
X029809Y015751D01*
X029868Y015714D01*
X029925Y015674D01*
X029980Y015631D01*
X030032Y015585D01*
X030081Y015536D01*
X030127Y015484D01*
X030171Y015430D01*
X030164Y015424D01*
X030120Y015478D01*
X030074Y015529D01*
X030025Y015578D01*
X029974Y015624D01*
X029920Y015667D01*
X029863Y015707D01*
X029805Y015743D01*
X029744Y015777D01*
X029682Y015807D01*
X029618Y015833D01*
X029553Y015855D01*
X029487Y015874D01*
X029419Y015890D01*
X029351Y015901D01*
X029283Y015909D01*
X029214Y015913D01*
X029145Y015912D01*
X029076Y015908D01*
X029007Y015901D01*
X028939Y015889D01*
X028872Y015874D01*
X028805Y015854D01*
X028740Y015831D01*
X028677Y015805D01*
X028614Y015775D01*
X028554Y015742D01*
X028496Y015705D01*
X028439Y015665D01*
X028385Y015622D01*
X028334Y015576D01*
X028285Y015527D01*
X028239Y015475D01*
X028196Y015421D01*
X028156Y015365D01*
X028120Y015306D01*
X028086Y015246D01*
X028056Y015184D01*
X028030Y015120D01*
X028007Y015055D01*
X027988Y014988D01*
X027973Y014921D01*
X027961Y014853D01*
X027953Y014784D01*
X027949Y014716D01*
X027949Y014646D01*
X027953Y014578D01*
X027961Y014509D01*
X027973Y014441D01*
X027988Y014374D01*
X028007Y014307D01*
X028030Y014242D01*
X028056Y014178D01*
X028086Y014116D01*
X028120Y014056D01*
X028156Y013997D01*
X028196Y013941D01*
X028239Y013887D01*
X028285Y013835D01*
X028334Y013786D01*
X028385Y013740D01*
X028439Y013697D01*
X028496Y013657D01*
X028554Y013620D01*
X028614Y013587D01*
X028677Y013557D01*
X028740Y013531D01*
X028805Y013508D01*
X028872Y013488D01*
X028939Y013473D01*
X029007Y013461D01*
X029076Y013454D01*
X029145Y013450D01*
X029214Y013449D01*
X029283Y013453D01*
X029351Y013461D01*
X029419Y013472D01*
X029487Y013488D01*
X029553Y013507D01*
X029618Y013529D01*
X029682Y013555D01*
X029744Y013585D01*
X029805Y013619D01*
X029863Y013655D01*
X029920Y013695D01*
X029974Y013738D01*
X030025Y013784D01*
X030074Y013833D01*
X030120Y013884D01*
X030164Y013938D01*
X030156Y013943D01*
X030113Y013889D01*
X030067Y013838D01*
X030017Y013789D01*
X029966Y013743D01*
X029911Y013700D01*
X029854Y013660D01*
X029796Y013624D01*
X029735Y013590D01*
X029672Y013561D01*
X029608Y013535D01*
X029542Y013513D01*
X029475Y013494D01*
X029408Y013479D01*
X029339Y013468D01*
X029270Y013461D01*
X029201Y013458D01*
X029132Y013459D01*
X029062Y013464D01*
X028994Y013472D01*
X028926Y013485D01*
X028858Y013501D01*
X028792Y013522D01*
X028727Y013545D01*
X028663Y013573D01*
X028601Y013604D01*
X028541Y013639D01*
X028483Y013677D01*
X028427Y013718D01*
X028374Y013762D01*
X028323Y013809D01*
X028275Y013859D01*
X028230Y013912D01*
X028188Y013967D01*
X028149Y014024D01*
X028114Y014084D01*
X028082Y014145D01*
X028053Y014208D01*
X028028Y014273D01*
X028007Y014339D01*
X027989Y014406D01*
X027976Y014474D01*
X027966Y014543D01*
X027960Y014612D01*
X027958Y014681D01*
X027960Y014750D01*
X027966Y014819D01*
X027976Y014888D01*
X027989Y014956D01*
X028007Y015023D01*
X028028Y015089D01*
X028053Y015154D01*
X028082Y015217D01*
X028114Y015278D01*
X028149Y015338D01*
X028188Y015395D01*
X028230Y015450D01*
X028275Y015503D01*
X028323Y015553D01*
X028374Y015600D01*
X028427Y015644D01*
X028483Y015685D01*
X028541Y015723D01*
X028601Y015758D01*
X028663Y015789D01*
X028727Y015817D01*
X028792Y015840D01*
X028858Y015861D01*
X028926Y015877D01*
X028994Y015890D01*
X029062Y015898D01*
X029132Y015903D01*
X029201Y015904D01*
X029270Y015901D01*
X029339Y015894D01*
X029408Y015883D01*
X029475Y015868D01*
X029542Y015849D01*
X029608Y015827D01*
X029672Y015801D01*
X029735Y015772D01*
X029796Y015738D01*
X029854Y015702D01*
X029911Y015662D01*
X029966Y015619D01*
X030017Y015573D01*
X030067Y015524D01*
X030113Y015473D01*
X030156Y015419D01*
X030149Y015413D01*
X030106Y015467D01*
X030060Y015518D01*
X030011Y015567D01*
X029960Y015612D01*
X029906Y015655D01*
X029849Y015694D01*
X029791Y015731D01*
X029731Y015764D01*
X029668Y015793D01*
X029605Y015819D01*
X029539Y015841D01*
X029473Y015859D01*
X029406Y015874D01*
X029338Y015885D01*
X029269Y015892D01*
X029201Y015895D01*
X029132Y015894D01*
X029063Y015889D01*
X028995Y015881D01*
X028927Y015868D01*
X028861Y015852D01*
X028795Y015832D01*
X028730Y015808D01*
X028667Y015781D01*
X028606Y015750D01*
X028546Y015716D01*
X028488Y015678D01*
X028433Y015637D01*
X028380Y015593D01*
X028330Y015546D01*
X028282Y015497D01*
X028237Y015445D01*
X028195Y015390D01*
X028157Y015333D01*
X028122Y015274D01*
X028090Y015213D01*
X028061Y015150D01*
X028037Y015086D01*
X028015Y015020D01*
X027998Y014954D01*
X027985Y014886D01*
X027975Y014818D01*
X027969Y014750D01*
X027967Y014681D01*
X027969Y014612D01*
X027975Y014544D01*
X027985Y014476D01*
X027998Y014408D01*
X028015Y014342D01*
X028037Y014276D01*
X028061Y014212D01*
X028090Y014149D01*
X028122Y014088D01*
X028157Y014029D01*
X028195Y013972D01*
X028237Y013917D01*
X028282Y013865D01*
X028330Y013816D01*
X028380Y013769D01*
X028433Y013725D01*
X028488Y013684D01*
X028546Y013646D01*
X028606Y013612D01*
X028667Y013581D01*
X028730Y013554D01*
X028795Y013530D01*
X028861Y013510D01*
X028927Y013494D01*
X028995Y013481D01*
X029063Y013473D01*
X029132Y013468D01*
X029201Y013467D01*
X029269Y013470D01*
X029338Y013477D01*
X029406Y013488D01*
X029473Y013503D01*
X029539Y013521D01*
X029605Y013543D01*
X029668Y013569D01*
X029731Y013598D01*
X029791Y013631D01*
X029849Y013668D01*
X029906Y013707D01*
X029960Y013750D01*
X030011Y013795D01*
X030060Y013844D01*
X030106Y013895D01*
X030149Y013949D01*
X030213Y010961D02*
X030141Y010907D01*
X030142Y010908D02*
X030099Y010961D01*
X030054Y011012D01*
X030005Y011060D01*
X029954Y011105D01*
X029900Y011148D01*
X029844Y011187D01*
X029786Y011223D01*
X029726Y011256D01*
X029665Y011285D01*
X029601Y011310D01*
X029537Y011332D01*
X029471Y011351D01*
X029404Y011365D01*
X029337Y011376D01*
X029269Y011383D01*
X029201Y011386D01*
X029132Y011385D01*
X029064Y011380D01*
X028996Y011372D01*
X028929Y011359D01*
X028863Y011343D01*
X028798Y011323D01*
X028733Y011300D01*
X028671Y011273D01*
X028610Y011242D01*
X028551Y011208D01*
X028493Y011171D01*
X028438Y011130D01*
X028386Y011086D01*
X028336Y011040D01*
X028289Y010991D01*
X028244Y010939D01*
X028203Y010885D01*
X028164Y010828D01*
X028129Y010769D01*
X028098Y010709D01*
X028070Y010647D01*
X028045Y010583D01*
X028024Y010518D01*
X028007Y010452D01*
X027993Y010385D01*
X027984Y010317D01*
X027978Y010249D01*
X027976Y010181D01*
X027978Y010113D01*
X027984Y010045D01*
X027993Y009977D01*
X028007Y009910D01*
X028024Y009844D01*
X028045Y009779D01*
X028070Y009715D01*
X028098Y009653D01*
X028129Y009593D01*
X028164Y009534D01*
X028203Y009477D01*
X028244Y009423D01*
X028289Y009371D01*
X028336Y009322D01*
X028386Y009276D01*
X028438Y009232D01*
X028493Y009191D01*
X028551Y009154D01*
X028610Y009120D01*
X028671Y009089D01*
X028733Y009062D01*
X028798Y009039D01*
X028863Y009019D01*
X028929Y009003D01*
X028996Y008990D01*
X029064Y008982D01*
X029132Y008977D01*
X029201Y008976D01*
X029269Y008979D01*
X029337Y008986D01*
X029404Y008997D01*
X029471Y009011D01*
X029537Y009030D01*
X029601Y009052D01*
X029665Y009077D01*
X029726Y009106D01*
X029786Y009139D01*
X029844Y009175D01*
X029900Y009214D01*
X029954Y009257D01*
X030005Y009302D01*
X030054Y009350D01*
X030099Y009401D01*
X030142Y009454D01*
X030213Y009401D01*
X030214Y009400D01*
X030170Y009345D01*
X030122Y009292D01*
X030072Y009241D01*
X030019Y009194D01*
X029964Y009150D01*
X029906Y009108D01*
X029846Y009070D01*
X029785Y009035D01*
X029721Y009004D01*
X029656Y008976D01*
X029589Y008952D01*
X029521Y008931D01*
X029452Y008915D01*
X029382Y008902D01*
X029312Y008893D01*
X029241Y008887D01*
X029170Y008886D01*
X029099Y008889D01*
X029028Y008895D01*
X028958Y008905D01*
X028889Y008919D01*
X028820Y008937D01*
X028752Y008959D01*
X028686Y008984D01*
X028621Y009013D01*
X028558Y009046D01*
X028497Y009082D01*
X028438Y009121D01*
X028381Y009163D01*
X028326Y009208D01*
X028274Y009257D01*
X028225Y009308D01*
X028178Y009361D01*
X028135Y009418D01*
X028095Y009476D01*
X028058Y009537D01*
X028024Y009599D01*
X027994Y009663D01*
X027967Y009729D01*
X027944Y009796D01*
X027925Y009865D01*
X027910Y009934D01*
X027898Y010004D01*
X027890Y010075D01*
X027886Y010146D01*
X027886Y010216D01*
X027890Y010287D01*
X027898Y010358D01*
X027910Y010428D01*
X027925Y010497D01*
X027944Y010566D01*
X027967Y010633D01*
X027994Y010699D01*
X028024Y010763D01*
X028058Y010825D01*
X028095Y010886D01*
X028135Y010944D01*
X028178Y011001D01*
X028225Y011054D01*
X028274Y011105D01*
X028326Y011154D01*
X028381Y011199D01*
X028438Y011241D01*
X028497Y011280D01*
X028558Y011316D01*
X028621Y011349D01*
X028686Y011378D01*
X028752Y011403D01*
X028820Y011425D01*
X028889Y011443D01*
X028958Y011457D01*
X029028Y011467D01*
X029099Y011473D01*
X029170Y011476D01*
X029241Y011475D01*
X029312Y011469D01*
X029382Y011460D01*
X029452Y011447D01*
X029521Y011431D01*
X029589Y011410D01*
X029656Y011386D01*
X029721Y011358D01*
X029785Y011327D01*
X029846Y011292D01*
X029906Y011254D01*
X029964Y011212D01*
X030019Y011168D01*
X030072Y011121D01*
X030122Y011070D01*
X030170Y011017D01*
X030214Y010962D01*
X030207Y010957D01*
X030162Y011012D01*
X030115Y011065D01*
X030064Y011116D01*
X030011Y011163D01*
X029955Y011208D01*
X029897Y011249D01*
X029837Y011287D01*
X029775Y011322D01*
X029711Y011353D01*
X029645Y011380D01*
X029578Y011404D01*
X029509Y011424D01*
X029440Y011441D01*
X029370Y011453D01*
X029299Y011462D01*
X029228Y011466D01*
X029157Y011467D01*
X029086Y011463D01*
X029015Y011456D01*
X028944Y011445D01*
X028875Y011430D01*
X028806Y011411D01*
X028738Y011388D01*
X028672Y011362D01*
X028607Y011332D01*
X028545Y011298D01*
X028484Y011262D01*
X028425Y011221D01*
X028368Y011178D01*
X028314Y011131D01*
X028263Y011082D01*
X028215Y011029D01*
X028169Y010975D01*
X028127Y010917D01*
X028088Y010858D01*
X028052Y010796D01*
X028019Y010733D01*
X027991Y010668D01*
X027965Y010601D01*
X027944Y010533D01*
X027926Y010464D01*
X027913Y010394D01*
X027903Y010323D01*
X027897Y010252D01*
X027895Y010181D01*
X027897Y010110D01*
X027903Y010039D01*
X027913Y009968D01*
X027926Y009898D01*
X027944Y009829D01*
X027965Y009761D01*
X027991Y009694D01*
X028019Y009629D01*
X028052Y009566D01*
X028088Y009504D01*
X028127Y009445D01*
X028169Y009387D01*
X028215Y009333D01*
X028263Y009280D01*
X028314Y009231D01*
X028368Y009184D01*
X028425Y009141D01*
X028484Y009100D01*
X028545Y009064D01*
X028607Y009030D01*
X028672Y009000D01*
X028738Y008974D01*
X028806Y008951D01*
X028875Y008932D01*
X028944Y008917D01*
X029015Y008906D01*
X029086Y008899D01*
X029157Y008895D01*
X029228Y008896D01*
X029299Y008900D01*
X029370Y008909D01*
X029440Y008921D01*
X029509Y008938D01*
X029578Y008958D01*
X029645Y008982D01*
X029711Y009009D01*
X029775Y009040D01*
X029837Y009075D01*
X029897Y009113D01*
X029955Y009154D01*
X030011Y009199D01*
X030064Y009246D01*
X030115Y009297D01*
X030162Y009350D01*
X030207Y009405D01*
X030200Y009411D01*
X030155Y009356D01*
X030108Y009303D01*
X030058Y009253D01*
X030005Y009206D01*
X029950Y009162D01*
X029892Y009120D01*
X029833Y009083D01*
X029771Y009048D01*
X029707Y009017D01*
X029642Y008990D01*
X029575Y008966D01*
X029507Y008946D01*
X029438Y008930D01*
X029369Y008918D01*
X029298Y008909D01*
X029228Y008905D01*
X029157Y008904D01*
X029086Y008908D01*
X029016Y008915D01*
X028946Y008926D01*
X028877Y008941D01*
X028809Y008960D01*
X028741Y008982D01*
X028676Y009008D01*
X028611Y009038D01*
X028549Y009071D01*
X028489Y009108D01*
X028430Y009148D01*
X028374Y009191D01*
X028320Y009237D01*
X028270Y009287D01*
X028221Y009338D01*
X028176Y009393D01*
X028134Y009450D01*
X028095Y009509D01*
X028060Y009570D01*
X028027Y009633D01*
X027999Y009698D01*
X027974Y009764D01*
X027953Y009832D01*
X027935Y009900D01*
X027922Y009970D01*
X027912Y010040D01*
X027906Y010110D01*
X027904Y010181D01*
X027906Y010252D01*
X027912Y010322D01*
X027922Y010392D01*
X027935Y010462D01*
X027953Y010530D01*
X027974Y010598D01*
X027999Y010664D01*
X028027Y010729D01*
X028060Y010792D01*
X028095Y010853D01*
X028134Y010912D01*
X028176Y010969D01*
X028221Y011024D01*
X028270Y011075D01*
X028320Y011125D01*
X028374Y011171D01*
X028430Y011214D01*
X028489Y011254D01*
X028549Y011291D01*
X028611Y011324D01*
X028676Y011354D01*
X028741Y011380D01*
X028809Y011402D01*
X028877Y011421D01*
X028946Y011436D01*
X029016Y011447D01*
X029086Y011454D01*
X029157Y011458D01*
X029228Y011457D01*
X029298Y011453D01*
X029369Y011444D01*
X029438Y011432D01*
X029507Y011416D01*
X029575Y011396D01*
X029642Y011372D01*
X029707Y011345D01*
X029771Y011314D01*
X029833Y011279D01*
X029892Y011242D01*
X029950Y011200D01*
X030005Y011156D01*
X030058Y011109D01*
X030108Y011059D01*
X030155Y011006D01*
X030200Y010951D01*
X030192Y010946D01*
X030148Y011001D01*
X030100Y011054D01*
X030050Y011104D01*
X029997Y011152D01*
X029941Y011196D01*
X029883Y011237D01*
X029823Y011274D01*
X029761Y011309D01*
X029697Y011339D01*
X029631Y011366D01*
X029564Y011390D01*
X029496Y011409D01*
X029426Y011425D01*
X029356Y011437D01*
X029286Y011445D01*
X029215Y011449D01*
X029144Y011448D01*
X029073Y011444D01*
X029002Y011436D01*
X028932Y011424D01*
X028863Y011408D01*
X028795Y011389D01*
X028727Y011365D01*
X028662Y011338D01*
X028598Y011307D01*
X028536Y011273D01*
X028476Y011235D01*
X028418Y011193D01*
X028362Y011149D01*
X028309Y011102D01*
X028259Y011051D01*
X028212Y010998D01*
X028167Y010943D01*
X028126Y010885D01*
X028089Y010825D01*
X028054Y010762D01*
X028023Y010698D01*
X027996Y010633D01*
X027973Y010566D01*
X027953Y010497D01*
X027937Y010428D01*
X027925Y010358D01*
X027917Y010287D01*
X027913Y010217D01*
X027913Y010145D01*
X027917Y010075D01*
X027925Y010004D01*
X027937Y009934D01*
X027953Y009865D01*
X027973Y009796D01*
X027996Y009729D01*
X028023Y009664D01*
X028054Y009600D01*
X028089Y009537D01*
X028126Y009477D01*
X028167Y009419D01*
X028212Y009364D01*
X028259Y009311D01*
X028309Y009260D01*
X028362Y009213D01*
X028418Y009169D01*
X028476Y009127D01*
X028536Y009089D01*
X028598Y009055D01*
X028662Y009024D01*
X028727Y008997D01*
X028795Y008973D01*
X028863Y008954D01*
X028932Y008938D01*
X029002Y008926D01*
X029073Y008918D01*
X029144Y008914D01*
X029215Y008913D01*
X029286Y008917D01*
X029356Y008925D01*
X029426Y008937D01*
X029496Y008953D01*
X029564Y008972D01*
X029631Y008996D01*
X029697Y009023D01*
X029761Y009053D01*
X029823Y009088D01*
X029883Y009125D01*
X029941Y009166D01*
X029997Y009210D01*
X030050Y009258D01*
X030100Y009308D01*
X030148Y009361D01*
X030192Y009416D01*
X030185Y009422D01*
X030141Y009367D01*
X030094Y009314D01*
X030044Y009264D01*
X029991Y009217D01*
X029936Y009173D01*
X029878Y009133D01*
X029819Y009095D01*
X029757Y009061D01*
X029693Y009031D01*
X029628Y009004D01*
X029561Y008981D01*
X029493Y008961D01*
X029425Y008946D01*
X029355Y008934D01*
X029285Y008926D01*
X029214Y008922D01*
X029144Y008923D01*
X029073Y008927D01*
X029003Y008935D01*
X028934Y008947D01*
X028865Y008962D01*
X028797Y008982D01*
X028731Y009005D01*
X028666Y009032D01*
X028602Y009063D01*
X028540Y009097D01*
X028481Y009135D01*
X028423Y009176D01*
X028368Y009220D01*
X028315Y009267D01*
X028266Y009317D01*
X028219Y009369D01*
X028175Y009425D01*
X028134Y009482D01*
X028096Y009542D01*
X028062Y009604D01*
X028032Y009667D01*
X028005Y009732D01*
X027981Y009799D01*
X027962Y009867D01*
X027946Y009936D01*
X027934Y010005D01*
X027926Y010075D01*
X027922Y010146D01*
X027922Y010216D01*
X027926Y010287D01*
X027934Y010357D01*
X027946Y010426D01*
X027962Y010495D01*
X027981Y010563D01*
X028005Y010630D01*
X028032Y010695D01*
X028062Y010758D01*
X028096Y010820D01*
X028134Y010880D01*
X028175Y010937D01*
X028219Y010993D01*
X028266Y011045D01*
X028315Y011095D01*
X028368Y011142D01*
X028423Y011186D01*
X028481Y011227D01*
X028540Y011265D01*
X028602Y011299D01*
X028666Y011330D01*
X028731Y011357D01*
X028797Y011380D01*
X028865Y011400D01*
X028934Y011415D01*
X029003Y011427D01*
X029073Y011435D01*
X029144Y011439D01*
X029214Y011440D01*
X029285Y011436D01*
X029355Y011428D01*
X029425Y011416D01*
X029493Y011401D01*
X029561Y011381D01*
X029628Y011358D01*
X029693Y011331D01*
X029757Y011301D01*
X029819Y011267D01*
X029878Y011229D01*
X029936Y011189D01*
X029991Y011145D01*
X030044Y011098D01*
X030094Y011048D01*
X030141Y010995D01*
X030185Y010940D01*
X030178Y010935D01*
X030134Y010990D01*
X030087Y011042D01*
X030038Y011091D01*
X029985Y011138D01*
X029931Y011181D01*
X029873Y011222D01*
X029814Y011259D01*
X029753Y011293D01*
X029689Y011323D01*
X029625Y011350D01*
X029558Y011373D01*
X029491Y011392D01*
X029423Y011407D01*
X029354Y011419D01*
X029284Y011427D01*
X029214Y011431D01*
X029144Y011430D01*
X029074Y011426D01*
X029005Y011418D01*
X028936Y011407D01*
X028867Y011391D01*
X028800Y011372D01*
X028734Y011348D01*
X028669Y011321D01*
X028606Y011291D01*
X028545Y011257D01*
X028486Y011220D01*
X028428Y011179D01*
X028374Y011135D01*
X028322Y011089D01*
X028272Y011039D01*
X028225Y010987D01*
X028182Y010932D01*
X028141Y010875D01*
X028104Y010816D01*
X028070Y010754D01*
X028040Y010691D01*
X028013Y010626D01*
X027990Y010560D01*
X027971Y010493D01*
X027955Y010425D01*
X027943Y010356D01*
X027935Y010286D01*
X027931Y010216D01*
X027931Y010146D01*
X027935Y010076D01*
X027943Y010006D01*
X027955Y009937D01*
X027971Y009869D01*
X027990Y009802D01*
X028013Y009736D01*
X028040Y009671D01*
X028070Y009608D01*
X028104Y009546D01*
X028141Y009487D01*
X028182Y009430D01*
X028225Y009375D01*
X028272Y009323D01*
X028322Y009273D01*
X028374Y009227D01*
X028428Y009183D01*
X028486Y009142D01*
X028545Y009105D01*
X028606Y009071D01*
X028669Y009041D01*
X028734Y009014D01*
X028800Y008990D01*
X028867Y008971D01*
X028936Y008955D01*
X029005Y008944D01*
X029074Y008936D01*
X029144Y008932D01*
X029214Y008931D01*
X029284Y008935D01*
X029354Y008943D01*
X029423Y008955D01*
X029491Y008970D01*
X029558Y008989D01*
X029625Y009012D01*
X029689Y009039D01*
X029753Y009069D01*
X029814Y009103D01*
X029873Y009140D01*
X029931Y009181D01*
X029985Y009224D01*
X030038Y009271D01*
X030087Y009320D01*
X030134Y009372D01*
X030178Y009427D01*
X030171Y009432D01*
X030127Y009378D01*
X030081Y009326D01*
X030032Y009277D01*
X029980Y009231D01*
X029925Y009188D01*
X029868Y009148D01*
X029809Y009111D01*
X029748Y009077D01*
X029686Y009047D01*
X029621Y009021D01*
X029556Y008998D01*
X029489Y008979D01*
X029421Y008963D01*
X029352Y008952D01*
X029283Y008944D01*
X029214Y008940D01*
X029144Y008941D01*
X029075Y008945D01*
X029006Y008952D01*
X028937Y008964D01*
X028870Y008980D01*
X028803Y008999D01*
X028737Y009022D01*
X028673Y009049D01*
X028610Y009079D01*
X028549Y009113D01*
X028491Y009150D01*
X028434Y009190D01*
X028380Y009233D01*
X028328Y009280D01*
X028279Y009329D01*
X028232Y009381D01*
X028189Y009435D01*
X028149Y009492D01*
X028112Y009551D01*
X028078Y009612D01*
X028048Y009675D01*
X028021Y009739D01*
X027998Y009804D01*
X027979Y009871D01*
X027964Y009939D01*
X027952Y010008D01*
X027944Y010077D01*
X027940Y010146D01*
X027940Y010216D01*
X027944Y010285D01*
X027952Y010354D01*
X027964Y010423D01*
X027979Y010491D01*
X027998Y010558D01*
X028021Y010623D01*
X028048Y010687D01*
X028078Y010750D01*
X028112Y010811D01*
X028149Y010870D01*
X028189Y010927D01*
X028232Y010981D01*
X028279Y011033D01*
X028328Y011082D01*
X028380Y011129D01*
X028434Y011172D01*
X028491Y011212D01*
X028549Y011249D01*
X028610Y011283D01*
X028673Y011313D01*
X028737Y011340D01*
X028803Y011363D01*
X028870Y011382D01*
X028937Y011398D01*
X029006Y011410D01*
X029075Y011417D01*
X029144Y011421D01*
X029214Y011422D01*
X029283Y011418D01*
X029352Y011410D01*
X029421Y011399D01*
X029489Y011383D01*
X029556Y011364D01*
X029621Y011341D01*
X029686Y011315D01*
X029748Y011285D01*
X029809Y011251D01*
X029868Y011214D01*
X029925Y011174D01*
X029980Y011131D01*
X030032Y011085D01*
X030081Y011036D01*
X030127Y010984D01*
X030171Y010930D01*
X030164Y010924D01*
X030120Y010978D01*
X030074Y011029D01*
X030025Y011078D01*
X029974Y011124D01*
X029920Y011167D01*
X029863Y011207D01*
X029805Y011243D01*
X029744Y011277D01*
X029682Y011307D01*
X029618Y011333D01*
X029553Y011355D01*
X029487Y011374D01*
X029419Y011390D01*
X029351Y011401D01*
X029283Y011409D01*
X029214Y011413D01*
X029145Y011412D01*
X029076Y011408D01*
X029007Y011401D01*
X028939Y011389D01*
X028872Y011374D01*
X028805Y011354D01*
X028740Y011331D01*
X028677Y011305D01*
X028614Y011275D01*
X028554Y011242D01*
X028496Y011205D01*
X028439Y011165D01*
X028385Y011122D01*
X028334Y011076D01*
X028285Y011027D01*
X028239Y010975D01*
X028196Y010921D01*
X028156Y010865D01*
X028120Y010806D01*
X028086Y010746D01*
X028056Y010684D01*
X028030Y010620D01*
X028007Y010555D01*
X027988Y010488D01*
X027973Y010421D01*
X027961Y010353D01*
X027953Y010284D01*
X027949Y010216D01*
X027949Y010146D01*
X027953Y010078D01*
X027961Y010009D01*
X027973Y009941D01*
X027988Y009874D01*
X028007Y009807D01*
X028030Y009742D01*
X028056Y009678D01*
X028086Y009616D01*
X028120Y009556D01*
X028156Y009497D01*
X028196Y009441D01*
X028239Y009387D01*
X028285Y009335D01*
X028334Y009286D01*
X028385Y009240D01*
X028439Y009197D01*
X028496Y009157D01*
X028554Y009120D01*
X028614Y009087D01*
X028677Y009057D01*
X028740Y009031D01*
X028805Y009008D01*
X028872Y008988D01*
X028939Y008973D01*
X029007Y008961D01*
X029076Y008954D01*
X029145Y008950D01*
X029214Y008949D01*
X029283Y008953D01*
X029351Y008961D01*
X029419Y008972D01*
X029487Y008988D01*
X029553Y009007D01*
X029618Y009029D01*
X029682Y009055D01*
X029744Y009085D01*
X029805Y009119D01*
X029863Y009155D01*
X029920Y009195D01*
X029974Y009238D01*
X030025Y009284D01*
X030074Y009333D01*
X030120Y009384D01*
X030164Y009438D01*
X030156Y009443D01*
X030113Y009389D01*
X030067Y009338D01*
X030017Y009289D01*
X029966Y009243D01*
X029911Y009200D01*
X029854Y009160D01*
X029796Y009124D01*
X029735Y009090D01*
X029672Y009061D01*
X029608Y009035D01*
X029542Y009013D01*
X029475Y008994D01*
X029408Y008979D01*
X029339Y008968D01*
X029270Y008961D01*
X029201Y008958D01*
X029132Y008959D01*
X029062Y008964D01*
X028994Y008972D01*
X028926Y008985D01*
X028858Y009001D01*
X028792Y009022D01*
X028727Y009045D01*
X028663Y009073D01*
X028601Y009104D01*
X028541Y009139D01*
X028483Y009177D01*
X028427Y009218D01*
X028374Y009262D01*
X028323Y009309D01*
X028275Y009359D01*
X028230Y009412D01*
X028188Y009467D01*
X028149Y009524D01*
X028114Y009584D01*
X028082Y009645D01*
X028053Y009708D01*
X028028Y009773D01*
X028007Y009839D01*
X027989Y009906D01*
X027976Y009974D01*
X027966Y010043D01*
X027960Y010112D01*
X027958Y010181D01*
X027960Y010250D01*
X027966Y010319D01*
X027976Y010388D01*
X027989Y010456D01*
X028007Y010523D01*
X028028Y010589D01*
X028053Y010654D01*
X028082Y010717D01*
X028114Y010778D01*
X028149Y010838D01*
X028188Y010895D01*
X028230Y010950D01*
X028275Y011003D01*
X028323Y011053D01*
X028374Y011100D01*
X028427Y011144D01*
X028483Y011185D01*
X028541Y011223D01*
X028601Y011258D01*
X028663Y011289D01*
X028727Y011317D01*
X028792Y011340D01*
X028858Y011361D01*
X028926Y011377D01*
X028994Y011390D01*
X029062Y011398D01*
X029132Y011403D01*
X029201Y011404D01*
X029270Y011401D01*
X029339Y011394D01*
X029408Y011383D01*
X029475Y011368D01*
X029542Y011349D01*
X029608Y011327D01*
X029672Y011301D01*
X029735Y011272D01*
X029796Y011238D01*
X029854Y011202D01*
X029911Y011162D01*
X029966Y011119D01*
X030017Y011073D01*
X030067Y011024D01*
X030113Y010973D01*
X030156Y010919D01*
X030149Y010913D01*
X030106Y010967D01*
X030060Y011018D01*
X030011Y011067D01*
X029960Y011112D01*
X029906Y011155D01*
X029849Y011194D01*
X029791Y011231D01*
X029731Y011264D01*
X029668Y011293D01*
X029605Y011319D01*
X029539Y011341D01*
X029473Y011359D01*
X029406Y011374D01*
X029338Y011385D01*
X029269Y011392D01*
X029201Y011395D01*
X029132Y011394D01*
X029063Y011389D01*
X028995Y011381D01*
X028927Y011368D01*
X028861Y011352D01*
X028795Y011332D01*
X028730Y011308D01*
X028667Y011281D01*
X028606Y011250D01*
X028546Y011216D01*
X028488Y011178D01*
X028433Y011137D01*
X028380Y011093D01*
X028330Y011046D01*
X028282Y010997D01*
X028237Y010945D01*
X028195Y010890D01*
X028157Y010833D01*
X028122Y010774D01*
X028090Y010713D01*
X028061Y010650D01*
X028037Y010586D01*
X028015Y010520D01*
X027998Y010454D01*
X027985Y010386D01*
X027975Y010318D01*
X027969Y010250D01*
X027967Y010181D01*
X027969Y010112D01*
X027975Y010044D01*
X027985Y009976D01*
X027998Y009908D01*
X028015Y009842D01*
X028037Y009776D01*
X028061Y009712D01*
X028090Y009649D01*
X028122Y009588D01*
X028157Y009529D01*
X028195Y009472D01*
X028237Y009417D01*
X028282Y009365D01*
X028330Y009316D01*
X028380Y009269D01*
X028433Y009225D01*
X028488Y009184D01*
X028546Y009146D01*
X028606Y009112D01*
X028667Y009081D01*
X028730Y009054D01*
X028795Y009030D01*
X028861Y009010D01*
X028927Y008994D01*
X028995Y008981D01*
X029063Y008973D01*
X029132Y008968D01*
X029201Y008967D01*
X029269Y008970D01*
X029338Y008977D01*
X029406Y008988D01*
X029473Y009003D01*
X029539Y009021D01*
X029605Y009043D01*
X029668Y009069D01*
X029731Y009098D01*
X029791Y009131D01*
X029849Y009168D01*
X029906Y009207D01*
X029960Y009250D01*
X030011Y009295D01*
X030060Y009344D01*
X030106Y009395D01*
X030149Y009449D01*
X037713Y016461D02*
X037641Y016407D01*
X037642Y016408D02*
X037599Y016461D01*
X037554Y016512D01*
X037505Y016560D01*
X037454Y016605D01*
X037400Y016648D01*
X037344Y016687D01*
X037286Y016723D01*
X037226Y016756D01*
X037165Y016785D01*
X037101Y016810D01*
X037037Y016832D01*
X036971Y016851D01*
X036904Y016865D01*
X036837Y016876D01*
X036769Y016883D01*
X036701Y016886D01*
X036632Y016885D01*
X036564Y016880D01*
X036496Y016872D01*
X036429Y016859D01*
X036363Y016843D01*
X036298Y016823D01*
X036233Y016800D01*
X036171Y016773D01*
X036110Y016742D01*
X036051Y016708D01*
X035993Y016671D01*
X035938Y016630D01*
X035886Y016586D01*
X035836Y016540D01*
X035789Y016491D01*
X035744Y016439D01*
X035703Y016385D01*
X035664Y016328D01*
X035629Y016269D01*
X035598Y016209D01*
X035570Y016147D01*
X035545Y016083D01*
X035524Y016018D01*
X035507Y015952D01*
X035493Y015885D01*
X035484Y015817D01*
X035478Y015749D01*
X035476Y015681D01*
X035478Y015613D01*
X035484Y015545D01*
X035493Y015477D01*
X035507Y015410D01*
X035524Y015344D01*
X035545Y015279D01*
X035570Y015215D01*
X035598Y015153D01*
X035629Y015093D01*
X035664Y015034D01*
X035703Y014977D01*
X035744Y014923D01*
X035789Y014871D01*
X035836Y014822D01*
X035886Y014776D01*
X035938Y014732D01*
X035993Y014691D01*
X036051Y014654D01*
X036110Y014620D01*
X036171Y014589D01*
X036233Y014562D01*
X036298Y014539D01*
X036363Y014519D01*
X036429Y014503D01*
X036496Y014490D01*
X036564Y014482D01*
X036632Y014477D01*
X036701Y014476D01*
X036769Y014479D01*
X036837Y014486D01*
X036904Y014497D01*
X036971Y014511D01*
X037037Y014530D01*
X037101Y014552D01*
X037165Y014577D01*
X037226Y014606D01*
X037286Y014639D01*
X037344Y014675D01*
X037400Y014714D01*
X037454Y014757D01*
X037505Y014802D01*
X037554Y014850D01*
X037599Y014901D01*
X037642Y014954D01*
X037713Y014901D01*
X037714Y014900D01*
X037670Y014845D01*
X037622Y014792D01*
X037572Y014741D01*
X037519Y014694D01*
X037464Y014650D01*
X037406Y014608D01*
X037346Y014570D01*
X037285Y014535D01*
X037221Y014504D01*
X037156Y014476D01*
X037089Y014452D01*
X037021Y014431D01*
X036952Y014415D01*
X036882Y014402D01*
X036812Y014393D01*
X036741Y014387D01*
X036670Y014386D01*
X036599Y014389D01*
X036528Y014395D01*
X036458Y014405D01*
X036389Y014419D01*
X036320Y014437D01*
X036252Y014459D01*
X036186Y014484D01*
X036121Y014513D01*
X036058Y014546D01*
X035997Y014582D01*
X035938Y014621D01*
X035881Y014663D01*
X035826Y014708D01*
X035774Y014757D01*
X035725Y014808D01*
X035678Y014861D01*
X035635Y014918D01*
X035595Y014976D01*
X035558Y015037D01*
X035524Y015099D01*
X035494Y015163D01*
X035467Y015229D01*
X035444Y015296D01*
X035425Y015365D01*
X035410Y015434D01*
X035398Y015504D01*
X035390Y015575D01*
X035386Y015646D01*
X035386Y015716D01*
X035390Y015787D01*
X035398Y015858D01*
X035410Y015928D01*
X035425Y015997D01*
X035444Y016066D01*
X035467Y016133D01*
X035494Y016199D01*
X035524Y016263D01*
X035558Y016325D01*
X035595Y016386D01*
X035635Y016444D01*
X035678Y016501D01*
X035725Y016554D01*
X035774Y016605D01*
X035826Y016654D01*
X035881Y016699D01*
X035938Y016741D01*
X035997Y016780D01*
X036058Y016816D01*
X036121Y016849D01*
X036186Y016878D01*
X036252Y016903D01*
X036320Y016925D01*
X036389Y016943D01*
X036458Y016957D01*
X036528Y016967D01*
X036599Y016973D01*
X036670Y016976D01*
X036741Y016975D01*
X036812Y016969D01*
X036882Y016960D01*
X036952Y016947D01*
X037021Y016931D01*
X037089Y016910D01*
X037156Y016886D01*
X037221Y016858D01*
X037285Y016827D01*
X037346Y016792D01*
X037406Y016754D01*
X037464Y016712D01*
X037519Y016668D01*
X037572Y016621D01*
X037622Y016570D01*
X037670Y016517D01*
X037714Y016462D01*
X037707Y016457D01*
X037662Y016512D01*
X037615Y016565D01*
X037564Y016616D01*
X037511Y016663D01*
X037455Y016708D01*
X037397Y016749D01*
X037337Y016787D01*
X037275Y016822D01*
X037211Y016853D01*
X037145Y016880D01*
X037078Y016904D01*
X037009Y016924D01*
X036940Y016941D01*
X036870Y016953D01*
X036799Y016962D01*
X036728Y016966D01*
X036657Y016967D01*
X036586Y016963D01*
X036515Y016956D01*
X036444Y016945D01*
X036375Y016930D01*
X036306Y016911D01*
X036238Y016888D01*
X036172Y016862D01*
X036107Y016832D01*
X036045Y016798D01*
X035984Y016762D01*
X035925Y016721D01*
X035868Y016678D01*
X035814Y016631D01*
X035763Y016582D01*
X035715Y016529D01*
X035669Y016475D01*
X035627Y016417D01*
X035588Y016358D01*
X035552Y016296D01*
X035519Y016233D01*
X035491Y016168D01*
X035465Y016101D01*
X035444Y016033D01*
X035426Y015964D01*
X035413Y015894D01*
X035403Y015823D01*
X035397Y015752D01*
X035395Y015681D01*
X035397Y015610D01*
X035403Y015539D01*
X035413Y015468D01*
X035426Y015398D01*
X035444Y015329D01*
X035465Y015261D01*
X035491Y015194D01*
X035519Y015129D01*
X035552Y015066D01*
X035588Y015004D01*
X035627Y014945D01*
X035669Y014887D01*
X035715Y014833D01*
X035763Y014780D01*
X035814Y014731D01*
X035868Y014684D01*
X035925Y014641D01*
X035984Y014600D01*
X036045Y014564D01*
X036107Y014530D01*
X036172Y014500D01*
X036238Y014474D01*
X036306Y014451D01*
X036375Y014432D01*
X036444Y014417D01*
X036515Y014406D01*
X036586Y014399D01*
X036657Y014395D01*
X036728Y014396D01*
X036799Y014400D01*
X036870Y014409D01*
X036940Y014421D01*
X037009Y014438D01*
X037078Y014458D01*
X037145Y014482D01*
X037211Y014509D01*
X037275Y014540D01*
X037337Y014575D01*
X037397Y014613D01*
X037455Y014654D01*
X037511Y014699D01*
X037564Y014746D01*
X037615Y014797D01*
X037662Y014850D01*
X037707Y014905D01*
X037700Y014911D01*
X037655Y014856D01*
X037608Y014803D01*
X037558Y014753D01*
X037505Y014706D01*
X037450Y014662D01*
X037392Y014620D01*
X037333Y014583D01*
X037271Y014548D01*
X037207Y014517D01*
X037142Y014490D01*
X037075Y014466D01*
X037007Y014446D01*
X036938Y014430D01*
X036869Y014418D01*
X036798Y014409D01*
X036728Y014405D01*
X036657Y014404D01*
X036586Y014408D01*
X036516Y014415D01*
X036446Y014426D01*
X036377Y014441D01*
X036309Y014460D01*
X036241Y014482D01*
X036176Y014508D01*
X036111Y014538D01*
X036049Y014571D01*
X035989Y014608D01*
X035930Y014648D01*
X035874Y014691D01*
X035820Y014737D01*
X035770Y014787D01*
X035721Y014838D01*
X035676Y014893D01*
X035634Y014950D01*
X035595Y015009D01*
X035560Y015070D01*
X035527Y015133D01*
X035499Y015198D01*
X035474Y015264D01*
X035453Y015332D01*
X035435Y015400D01*
X035422Y015470D01*
X035412Y015540D01*
X035406Y015610D01*
X035404Y015681D01*
X035406Y015752D01*
X035412Y015822D01*
X035422Y015892D01*
X035435Y015962D01*
X035453Y016030D01*
X035474Y016098D01*
X035499Y016164D01*
X035527Y016229D01*
X035560Y016292D01*
X035595Y016353D01*
X035634Y016412D01*
X035676Y016469D01*
X035721Y016524D01*
X035770Y016575D01*
X035820Y016625D01*
X035874Y016671D01*
X035930Y016714D01*
X035989Y016754D01*
X036049Y016791D01*
X036111Y016824D01*
X036176Y016854D01*
X036241Y016880D01*
X036309Y016902D01*
X036377Y016921D01*
X036446Y016936D01*
X036516Y016947D01*
X036586Y016954D01*
X036657Y016958D01*
X036728Y016957D01*
X036798Y016953D01*
X036869Y016944D01*
X036938Y016932D01*
X037007Y016916D01*
X037075Y016896D01*
X037142Y016872D01*
X037207Y016845D01*
X037271Y016814D01*
X037333Y016779D01*
X037392Y016742D01*
X037450Y016700D01*
X037505Y016656D01*
X037558Y016609D01*
X037608Y016559D01*
X037655Y016506D01*
X037700Y016451D01*
X037692Y016446D01*
X037648Y016501D01*
X037600Y016554D01*
X037550Y016604D01*
X037497Y016652D01*
X037441Y016696D01*
X037383Y016737D01*
X037323Y016774D01*
X037261Y016809D01*
X037197Y016839D01*
X037131Y016866D01*
X037064Y016890D01*
X036996Y016909D01*
X036926Y016925D01*
X036856Y016937D01*
X036786Y016945D01*
X036715Y016949D01*
X036644Y016948D01*
X036573Y016944D01*
X036502Y016936D01*
X036432Y016924D01*
X036363Y016908D01*
X036295Y016889D01*
X036227Y016865D01*
X036162Y016838D01*
X036098Y016807D01*
X036036Y016773D01*
X035976Y016735D01*
X035918Y016693D01*
X035862Y016649D01*
X035809Y016602D01*
X035759Y016551D01*
X035712Y016498D01*
X035667Y016443D01*
X035626Y016385D01*
X035589Y016325D01*
X035554Y016262D01*
X035523Y016198D01*
X035496Y016133D01*
X035473Y016066D01*
X035453Y015997D01*
X035437Y015928D01*
X035425Y015858D01*
X035417Y015787D01*
X035413Y015717D01*
X035413Y015645D01*
X035417Y015575D01*
X035425Y015504D01*
X035437Y015434D01*
X035453Y015365D01*
X035473Y015296D01*
X035496Y015229D01*
X035523Y015164D01*
X035554Y015100D01*
X035589Y015037D01*
X035626Y014977D01*
X035667Y014919D01*
X035712Y014864D01*
X035759Y014811D01*
X035809Y014760D01*
X035862Y014713D01*
X035918Y014669D01*
X035976Y014627D01*
X036036Y014589D01*
X036098Y014555D01*
X036162Y014524D01*
X036227Y014497D01*
X036295Y014473D01*
X036363Y014454D01*
X036432Y014438D01*
X036502Y014426D01*
X036573Y014418D01*
X036644Y014414D01*
X036715Y014413D01*
X036786Y014417D01*
X036856Y014425D01*
X036926Y014437D01*
X036996Y014453D01*
X037064Y014472D01*
X037131Y014496D01*
X037197Y014523D01*
X037261Y014553D01*
X037323Y014588D01*
X037383Y014625D01*
X037441Y014666D01*
X037497Y014710D01*
X037550Y014758D01*
X037600Y014808D01*
X037648Y014861D01*
X037692Y014916D01*
X037685Y014922D01*
X037641Y014867D01*
X037594Y014814D01*
X037544Y014764D01*
X037491Y014717D01*
X037436Y014673D01*
X037378Y014633D01*
X037319Y014595D01*
X037257Y014561D01*
X037193Y014531D01*
X037128Y014504D01*
X037061Y014481D01*
X036993Y014461D01*
X036925Y014446D01*
X036855Y014434D01*
X036785Y014426D01*
X036714Y014422D01*
X036644Y014423D01*
X036573Y014427D01*
X036503Y014435D01*
X036434Y014447D01*
X036365Y014462D01*
X036297Y014482D01*
X036231Y014505D01*
X036166Y014532D01*
X036102Y014563D01*
X036040Y014597D01*
X035981Y014635D01*
X035923Y014676D01*
X035868Y014720D01*
X035815Y014767D01*
X035766Y014817D01*
X035719Y014869D01*
X035675Y014925D01*
X035634Y014982D01*
X035596Y015042D01*
X035562Y015104D01*
X035532Y015167D01*
X035505Y015232D01*
X035481Y015299D01*
X035462Y015367D01*
X035446Y015436D01*
X035434Y015505D01*
X035426Y015575D01*
X035422Y015646D01*
X035422Y015716D01*
X035426Y015787D01*
X035434Y015857D01*
X035446Y015926D01*
X035462Y015995D01*
X035481Y016063D01*
X035505Y016130D01*
X035532Y016195D01*
X035562Y016258D01*
X035596Y016320D01*
X035634Y016380D01*
X035675Y016437D01*
X035719Y016493D01*
X035766Y016545D01*
X035815Y016595D01*
X035868Y016642D01*
X035923Y016686D01*
X035981Y016727D01*
X036040Y016765D01*
X036102Y016799D01*
X036166Y016830D01*
X036231Y016857D01*
X036297Y016880D01*
X036365Y016900D01*
X036434Y016915D01*
X036503Y016927D01*
X036573Y016935D01*
X036644Y016939D01*
X036714Y016940D01*
X036785Y016936D01*
X036855Y016928D01*
X036925Y016916D01*
X036993Y016901D01*
X037061Y016881D01*
X037128Y016858D01*
X037193Y016831D01*
X037257Y016801D01*
X037319Y016767D01*
X037378Y016729D01*
X037436Y016689D01*
X037491Y016645D01*
X037544Y016598D01*
X037594Y016548D01*
X037641Y016495D01*
X037685Y016440D01*
X037678Y016435D01*
X037634Y016490D01*
X037587Y016542D01*
X037538Y016591D01*
X037485Y016638D01*
X037431Y016681D01*
X037373Y016722D01*
X037314Y016759D01*
X037253Y016793D01*
X037189Y016823D01*
X037125Y016850D01*
X037058Y016873D01*
X036991Y016892D01*
X036923Y016907D01*
X036854Y016919D01*
X036784Y016927D01*
X036714Y016931D01*
X036644Y016930D01*
X036574Y016926D01*
X036505Y016918D01*
X036436Y016907D01*
X036367Y016891D01*
X036300Y016872D01*
X036234Y016848D01*
X036169Y016821D01*
X036106Y016791D01*
X036045Y016757D01*
X035986Y016720D01*
X035928Y016679D01*
X035874Y016635D01*
X035822Y016589D01*
X035772Y016539D01*
X035725Y016487D01*
X035682Y016432D01*
X035641Y016375D01*
X035604Y016316D01*
X035570Y016254D01*
X035540Y016191D01*
X035513Y016126D01*
X035490Y016060D01*
X035471Y015993D01*
X035455Y015925D01*
X035443Y015856D01*
X035435Y015786D01*
X035431Y015716D01*
X035431Y015646D01*
X035435Y015576D01*
X035443Y015506D01*
X035455Y015437D01*
X035471Y015369D01*
X035490Y015302D01*
X035513Y015236D01*
X035540Y015171D01*
X035570Y015108D01*
X035604Y015046D01*
X035641Y014987D01*
X035682Y014930D01*
X035725Y014875D01*
X035772Y014823D01*
X035822Y014773D01*
X035874Y014727D01*
X035928Y014683D01*
X035986Y014642D01*
X036045Y014605D01*
X036106Y014571D01*
X036169Y014541D01*
X036234Y014514D01*
X036300Y014490D01*
X036367Y014471D01*
X036436Y014455D01*
X036505Y014444D01*
X036574Y014436D01*
X036644Y014432D01*
X036714Y014431D01*
X036784Y014435D01*
X036854Y014443D01*
X036923Y014455D01*
X036991Y014470D01*
X037058Y014489D01*
X037125Y014512D01*
X037189Y014539D01*
X037253Y014569D01*
X037314Y014603D01*
X037373Y014640D01*
X037431Y014681D01*
X037485Y014724D01*
X037538Y014771D01*
X037587Y014820D01*
X037634Y014872D01*
X037678Y014927D01*
X037671Y014932D01*
X037627Y014878D01*
X037581Y014826D01*
X037532Y014777D01*
X037480Y014731D01*
X037425Y014688D01*
X037368Y014648D01*
X037309Y014611D01*
X037248Y014577D01*
X037186Y014547D01*
X037121Y014521D01*
X037056Y014498D01*
X036989Y014479D01*
X036921Y014463D01*
X036852Y014452D01*
X036783Y014444D01*
X036714Y014440D01*
X036644Y014441D01*
X036575Y014445D01*
X036506Y014452D01*
X036437Y014464D01*
X036370Y014480D01*
X036303Y014499D01*
X036237Y014522D01*
X036173Y014549D01*
X036110Y014579D01*
X036049Y014613D01*
X035991Y014650D01*
X035934Y014690D01*
X035880Y014733D01*
X035828Y014780D01*
X035779Y014829D01*
X035732Y014881D01*
X035689Y014935D01*
X035649Y014992D01*
X035612Y015051D01*
X035578Y015112D01*
X035548Y015175D01*
X035521Y015239D01*
X035498Y015304D01*
X035479Y015371D01*
X035464Y015439D01*
X035452Y015508D01*
X035444Y015577D01*
X035440Y015646D01*
X035440Y015716D01*
X035444Y015785D01*
X035452Y015854D01*
X035464Y015923D01*
X035479Y015991D01*
X035498Y016058D01*
X035521Y016123D01*
X035548Y016187D01*
X035578Y016250D01*
X035612Y016311D01*
X035649Y016370D01*
X035689Y016427D01*
X035732Y016481D01*
X035779Y016533D01*
X035828Y016582D01*
X035880Y016629D01*
X035934Y016672D01*
X035991Y016712D01*
X036049Y016749D01*
X036110Y016783D01*
X036173Y016813D01*
X036237Y016840D01*
X036303Y016863D01*
X036370Y016882D01*
X036437Y016898D01*
X036506Y016910D01*
X036575Y016917D01*
X036644Y016921D01*
X036714Y016922D01*
X036783Y016918D01*
X036852Y016910D01*
X036921Y016899D01*
X036989Y016883D01*
X037056Y016864D01*
X037121Y016841D01*
X037186Y016815D01*
X037248Y016785D01*
X037309Y016751D01*
X037368Y016714D01*
X037425Y016674D01*
X037480Y016631D01*
X037532Y016585D01*
X037581Y016536D01*
X037627Y016484D01*
X037671Y016430D01*
X037664Y016424D01*
X037620Y016478D01*
X037574Y016529D01*
X037525Y016578D01*
X037474Y016624D01*
X037420Y016667D01*
X037363Y016707D01*
X037305Y016743D01*
X037244Y016777D01*
X037182Y016807D01*
X037118Y016833D01*
X037053Y016855D01*
X036987Y016874D01*
X036919Y016890D01*
X036851Y016901D01*
X036783Y016909D01*
X036714Y016913D01*
X036645Y016912D01*
X036576Y016908D01*
X036507Y016901D01*
X036439Y016889D01*
X036372Y016874D01*
X036305Y016854D01*
X036240Y016831D01*
X036177Y016805D01*
X036114Y016775D01*
X036054Y016742D01*
X035996Y016705D01*
X035939Y016665D01*
X035885Y016622D01*
X035834Y016576D01*
X035785Y016527D01*
X035739Y016475D01*
X035696Y016421D01*
X035656Y016365D01*
X035620Y016306D01*
X035586Y016246D01*
X035556Y016184D01*
X035530Y016120D01*
X035507Y016055D01*
X035488Y015988D01*
X035473Y015921D01*
X035461Y015853D01*
X035453Y015784D01*
X035449Y015716D01*
X035449Y015646D01*
X035453Y015578D01*
X035461Y015509D01*
X035473Y015441D01*
X035488Y015374D01*
X035507Y015307D01*
X035530Y015242D01*
X035556Y015178D01*
X035586Y015116D01*
X035620Y015056D01*
X035656Y014997D01*
X035696Y014941D01*
X035739Y014887D01*
X035785Y014835D01*
X035834Y014786D01*
X035885Y014740D01*
X035939Y014697D01*
X035996Y014657D01*
X036054Y014620D01*
X036114Y014587D01*
X036177Y014557D01*
X036240Y014531D01*
X036305Y014508D01*
X036372Y014488D01*
X036439Y014473D01*
X036507Y014461D01*
X036576Y014454D01*
X036645Y014450D01*
X036714Y014449D01*
X036783Y014453D01*
X036851Y014461D01*
X036919Y014472D01*
X036987Y014488D01*
X037053Y014507D01*
X037118Y014529D01*
X037182Y014555D01*
X037244Y014585D01*
X037305Y014619D01*
X037363Y014655D01*
X037420Y014695D01*
X037474Y014738D01*
X037525Y014784D01*
X037574Y014833D01*
X037620Y014884D01*
X037664Y014938D01*
X037656Y014943D01*
X037613Y014889D01*
X037567Y014838D01*
X037517Y014789D01*
X037466Y014743D01*
X037411Y014700D01*
X037354Y014660D01*
X037296Y014624D01*
X037235Y014590D01*
X037172Y014561D01*
X037108Y014535D01*
X037042Y014513D01*
X036975Y014494D01*
X036908Y014479D01*
X036839Y014468D01*
X036770Y014461D01*
X036701Y014458D01*
X036632Y014459D01*
X036562Y014464D01*
X036494Y014472D01*
X036426Y014485D01*
X036358Y014501D01*
X036292Y014522D01*
X036227Y014545D01*
X036163Y014573D01*
X036101Y014604D01*
X036041Y014639D01*
X035983Y014677D01*
X035927Y014718D01*
X035874Y014762D01*
X035823Y014809D01*
X035775Y014859D01*
X035730Y014912D01*
X035688Y014967D01*
X035649Y015024D01*
X035614Y015084D01*
X035582Y015145D01*
X035553Y015208D01*
X035528Y015273D01*
X035507Y015339D01*
X035489Y015406D01*
X035476Y015474D01*
X035466Y015543D01*
X035460Y015612D01*
X035458Y015681D01*
X035460Y015750D01*
X035466Y015819D01*
X035476Y015888D01*
X035489Y015956D01*
X035507Y016023D01*
X035528Y016089D01*
X035553Y016154D01*
X035582Y016217D01*
X035614Y016278D01*
X035649Y016338D01*
X035688Y016395D01*
X035730Y016450D01*
X035775Y016503D01*
X035823Y016553D01*
X035874Y016600D01*
X035927Y016644D01*
X035983Y016685D01*
X036041Y016723D01*
X036101Y016758D01*
X036163Y016789D01*
X036227Y016817D01*
X036292Y016840D01*
X036358Y016861D01*
X036426Y016877D01*
X036494Y016890D01*
X036562Y016898D01*
X036632Y016903D01*
X036701Y016904D01*
X036770Y016901D01*
X036839Y016894D01*
X036908Y016883D01*
X036975Y016868D01*
X037042Y016849D01*
X037108Y016827D01*
X037172Y016801D01*
X037235Y016772D01*
X037296Y016738D01*
X037354Y016702D01*
X037411Y016662D01*
X037466Y016619D01*
X037517Y016573D01*
X037567Y016524D01*
X037613Y016473D01*
X037656Y016419D01*
X037649Y016413D01*
X037606Y016467D01*
X037560Y016518D01*
X037511Y016567D01*
X037460Y016612D01*
X037406Y016655D01*
X037349Y016694D01*
X037291Y016731D01*
X037231Y016764D01*
X037168Y016793D01*
X037105Y016819D01*
X037039Y016841D01*
X036973Y016859D01*
X036906Y016874D01*
X036838Y016885D01*
X036769Y016892D01*
X036701Y016895D01*
X036632Y016894D01*
X036563Y016889D01*
X036495Y016881D01*
X036427Y016868D01*
X036361Y016852D01*
X036295Y016832D01*
X036230Y016808D01*
X036167Y016781D01*
X036106Y016750D01*
X036046Y016716D01*
X035988Y016678D01*
X035933Y016637D01*
X035880Y016593D01*
X035830Y016546D01*
X035782Y016497D01*
X035737Y016445D01*
X035695Y016390D01*
X035657Y016333D01*
X035622Y016274D01*
X035590Y016213D01*
X035561Y016150D01*
X035537Y016086D01*
X035515Y016020D01*
X035498Y015954D01*
X035485Y015886D01*
X035475Y015818D01*
X035469Y015750D01*
X035467Y015681D01*
X035469Y015612D01*
X035475Y015544D01*
X035485Y015476D01*
X035498Y015408D01*
X035515Y015342D01*
X035537Y015276D01*
X035561Y015212D01*
X035590Y015149D01*
X035622Y015088D01*
X035657Y015029D01*
X035695Y014972D01*
X035737Y014917D01*
X035782Y014865D01*
X035830Y014816D01*
X035880Y014769D01*
X035933Y014725D01*
X035988Y014684D01*
X036046Y014646D01*
X036106Y014612D01*
X036167Y014581D01*
X036230Y014554D01*
X036295Y014530D01*
X036361Y014510D01*
X036427Y014494D01*
X036495Y014481D01*
X036563Y014473D01*
X036632Y014468D01*
X036701Y014467D01*
X036769Y014470D01*
X036838Y014477D01*
X036906Y014488D01*
X036973Y014503D01*
X037039Y014521D01*
X037105Y014543D01*
X037168Y014569D01*
X037231Y014598D01*
X037291Y014631D01*
X037349Y014668D01*
X037406Y014707D01*
X037460Y014750D01*
X037511Y014795D01*
X037560Y014844D01*
X037606Y014895D01*
X037649Y014949D01*
M02*
